<?xml version="1.0" encoding="UTF-8"?>
<svg id="Capa_1" data-name="Capa 1" xmlns="http://www.w3.org/2000/svg" viewBox="0 0 511.97 448">
  <defs>
    <style>
      .cls-1 {
        fill: #37bbed;
      }
    </style>
  </defs>
  <path class="cls-1" d="m502.6,246.6c12.5-12.5,12.5-32.8,0-45.3l-128-128c-12.5-12.5-32.8-12.5-45.3,0s-12.5,32.8,0,45.3l73.4,73.4h-210.7c-17.7,0-32,14.3-32,32s14.3,32,32,32h210.7l-73.4,73.4c-12.5,12.5-12.5,32.8,0,45.3s32.8,12.5,45.3,0l128-128v-.1ZM160,64c17.7,0,32-14.3,32-32S177.7,0,160,0h-64C43,0,0,43,0,96v256c0,53,43,96,96,96h64c17.7,0,32-14.3,32-32s-14.3-32-32-32h-64c-17.7,0-32-14.3-32-32V96c0-17.7,14.3-32,32-32h64Z"/>
</svg>