<?xml version="1.0" encoding="UTF-8"?>
<svg id="Capa_1" data-name="Capa 1" xmlns="http://www.w3.org/2000/svg" viewBox="0 0 523.4 104.18">
  <defs>
    <style>
      .cls-1 {
        fill: #fff;
      }
    </style>
  </defs>
  <path class="cls-1" d="m76.82,99.38c-4.81,2.39-14.43,4.8-26.76,4.8C21.5,104.18,0,86.19,0,53.07S21.51,0,52.91,0C65.54,0,73.51,2.69,76.97,4.5l-3.15,10.64c-4.95-2.39-12.02-4.19-20.45-4.19-23.75,0-39.54,15.14-39.54,41.67,0,24.74,14.29,40.63,38.94,40.63,7.97,0,16.09-1.64,21.35-4.19l2.7,10.34v-.02h0Z"/>
  <path class="cls-1" d="m110.19,70.91l-10.52,31.77h-13.54L120.56,1.64h15.78l34.59,101.03h-13.98l-10.82-31.77h-35.95s0,.01,0,.01Zm33.22-10.2l-9.93-29.09c-2.26-6.6-3.76-12.59-5.25-18.43h-.3c-1.5,5.99-3.15,12.14-5.11,18.28l-9.93,29.23h30.51,0Z"/>
  <path class="cls-1" d="m198.88,1.64v101.03h-13.08V1.64h13.08Z"/>
  <path class="cls-1" d="m227.49,24.5c-.56,0-1.13,0-1.72-.03s-1.18-.05-1.77-.1-1.19-.1-1.77-.17V2.42c.61-.13,1.24-.24,1.9-.34.65-.1,1.32-.17,2-.23.68-.05,1.37-.08,2.07-.08,3.63,0,6.35.92,8.16,2.75s2.72,4.71,2.72,8.62c0,2.65-.43,4.81-1.29,6.48-.86,1.67-2.14,2.9-3.86,3.69-1.71.79-3.86,1.19-6.44,1.19Zm1.16-3.73c1.24,0,2.29-.23,3.15-.71.86-.47,1.5-1.26,1.94-2.37.44-1.11.66-2.62.66-4.54s-.22-3.42-.66-4.54c-.44-1.12-1.08-1.92-1.94-2.4s-1.89-.72-3.13-.72c-.3,0-.62.02-.97.04-.35.03-.68.08-.97.14v15.04c.39.03.74.05,1.06.05.32,0,.6,0,.86,0Z"/>
  <path class="cls-1" d="m244.73,5.42c-.95,0-1.65-.22-2.11-.66s-.69-1.04-.69-1.8.23-1.39.69-1.82,1.16-.65,2.11-.65,1.67.22,2.12.65c.45.44.68,1.04.68,1.82s-.23,1.36-.68,1.8c-.45.44-1.16.66-2.12.66Zm-2.23,18.83V7.83h4.47v16.41h-4.47Z"/>
  <path class="cls-1" d="m250.85,24.24V7.83h3.66l.35,2.28h.21c.4-.91.94-1.56,1.63-1.94s1.46-.57,2.3-.57c.2,0,.41,0,.61.03s.38.04.52.08v4.06c-.22-.04-.46-.07-.7-.08-.24-.02-.48-.02-.72-.02-.46,0-.91.06-1.35.19s-.84.31-1.2.55c-.36.25-.65.53-.86.86v10.96h-4.45Z"/>
  <path class="cls-1" d="m270.04,24.56c-1.87,0-3.39-.29-4.57-.87-1.18-.58-2.06-1.5-2.62-2.76-.56-1.26-.84-2.91-.84-4.95,0-1.86.27-3.41.8-4.67.54-1.25,1.31-2.18,2.33-2.8,1.01-.62,2.24-.93,3.66-.93s2.52.31,3.45.94c.93.62,1.64,1.57,2.13,2.83.48,1.26.73,2.85.73,4.75v1.29h-9.84v-2.69h6.3l-.64.27c0-1.21-.08-2.14-.25-2.79-.16-.65-.41-1.1-.73-1.34s-.71-.37-1.17-.37-.87.12-1.21.37-.59.69-.77,1.34c-.18.65-.27,1.58-.27,2.79v1.92c0,1.05.13,1.88.38,2.48.25.61.68,1.03,1.27,1.28.59.25,1.39.38,2.4.38.59,0,1.19-.05,1.8-.14.61-.09,1.24-.23,1.91-.4v3.51c-.78.19-1.5.33-2.17.42-.67.09-1.37.13-2.08.13Z"/>
  <path class="cls-1" d="m284.86,24.56c-1.57,0-2.91-.29-4.01-.88-1.1-.59-1.94-1.51-2.52-2.76s-.86-2.87-.86-4.86.32-3.67.97-4.91c.65-1.25,1.57-2.15,2.76-2.71s2.61-.85,4.25-.85c.52,0,1.03.02,1.52.07s.98.12,1.45.22v3.58c-.36-.08-.72-.14-1.1-.17-.38-.03-.72-.04-1.04-.04-.96,0-1.74.15-2.36.45-.61.3-1.07.8-1.36,1.49s-.44,1.62-.44,2.8c0,1.26.14,2.25.41,2.96.28.72.69,1.22,1.24,1.51s1.24.44,2.07.44c.39,0,.79-.04,1.22-.12.42-.08.88-.2,1.37-.36v3.6c-.57.19-1.16.33-1.78.42-.61.09-1.21.13-1.79.13Z"/>
  <path class="cls-1" d="m298.02,24.56c-1.57,0-2.91-.29-4.01-.88-1.1-.59-1.94-1.51-2.52-2.76s-.86-2.87-.86-4.86.32-3.67.97-4.91c.65-1.25,1.57-2.15,2.76-2.71s2.61-.85,4.25-.85c.52,0,1.03.02,1.52.07s.98.12,1.45.22v3.58c-.36-.08-.72-.14-1.1-.17-.38-.03-.72-.04-1.04-.04-.96,0-1.74.15-2.36.45-.61.3-1.07.8-1.36,1.49s-.44,1.62-.44,2.8c0,1.26.14,2.25.41,2.96.28.72.69,1.22,1.24,1.51s1.24.44,2.07.44c.39,0,.79-.04,1.22-.12.42-.08.88-.2,1.37-.36v3.6c-.57.19-1.16.33-1.78.42-.61.09-1.21.13-1.79.13Z"/>
  <path class="cls-1" d="m306.7,5.42c-.95,0-1.65-.22-2.11-.66s-.69-1.04-.69-1.8.23-1.39.69-1.82,1.16-.65,2.11-.65,1.67.22,2.12.65c.45.44.68,1.04.68,1.82s-.23,1.36-.68,1.8c-.45.44-1.16.66-2.12.66Zm-2.23,18.83V7.83h4.47v16.41h-4.47Z"/>
  <path class="cls-1" d="m319.14,24.56c-1.47,0-2.73-.29-3.77-.88-1.05-.59-1.84-1.51-2.39-2.75-.55-1.25-.83-2.84-.83-4.79s.28-3.61.83-4.88c.55-1.26,1.35-2.19,2.39-2.78,1.04-.59,2.3-.89,3.78-.89s2.71.31,3.76.92,1.84,1.54,2.39,2.8c.55,1.26.83,2.85.83,4.79s-.28,3.58-.83,4.83-1.35,2.17-2.39,2.76c-1.04.59-2.29.88-3.76.88Zm0-3.29c.51,0,.95-.13,1.31-.4.36-.27.64-.77.83-1.52.19-.74.28-1.81.28-3.21s-.1-2.54-.29-3.3c-.19-.76-.47-1.28-.83-1.56-.36-.28-.79-.42-1.29-.42s-.95.14-1.31.41c-.36.27-.64.79-.83,1.54-.19.75-.29,1.84-.29,3.26s.1,2.5.29,3.25c.19.75.47,1.26.83,1.54.36.27.79.41,1.32.41Zm-1.93-15.52l2.91-5.75h4.5l-3.55,5.75h-3.86Z"/>
  <path class="cls-1" d="m329.34,24.24V7.83h3.7l.34,1.74h.2c.52-.66,1.13-1.16,1.84-1.49.7-.33,1.49-.5,2.36-.5s1.69.18,2.39.55c.71.37,1.27.97,1.68,1.81s.62,1.97.62,3.39v10.92h-4.45v-10.6c0-.83-.17-1.4-.5-1.71-.34-.31-.78-.46-1.33-.46-.28,0-.56.04-.86.13s-.58.22-.84.4c-.27.18-.5.42-.69.71v11.55h-4.45Z"/>
  <path class="cls-1" d="m358.91,24.56c-1.02,0-1.97-.27-2.86-.82-.89-.55-1.6-1.43-2.15-2.62-.55-1.2-.82-2.78-.82-4.74s.3-3.53.9-4.84c.6-1.31,1.51-2.29,2.75-2.95,1.23-.66,2.81-.99,4.73-.99.15,0,.3,0,.45,0,.15,0,.29.02.42.04V0h4.47v24.24h-3.78l-.31-1.74h-.21c-.32.61-.78,1.11-1.38,1.49-.61.38-1.34.57-2.2.57Zm1.44-3.69c.38,0,.74-.08,1.1-.24.36-.16.65-.39.87-.69v-8.86c-.17-.04-.38-.07-.61-.08s-.44-.02-.61-.02c-1.12,0-1.98.35-2.57,1.06-.59.71-.89,2.02-.89,3.94,0,1.34.12,2.36.35,3.06.23.7.56,1.18.96,1.44.41.26.87.39,1.39.39Z"/>
  <path class="cls-1" d="m378.02,24.56c-1.87,0-3.39-.29-4.57-.87-1.18-.58-2.06-1.5-2.62-2.76-.56-1.26-.84-2.91-.84-4.95,0-1.86.27-3.41.8-4.67.54-1.25,1.31-2.18,2.33-2.8s2.24-.93,3.66-.93,2.52.31,3.45.94c.93.62,1.64,1.57,2.13,2.83.48,1.26.73,2.85.73,4.75v1.29h-9.84v-2.69h6.3l-.64.27c0-1.21-.08-2.14-.25-2.79-.16-.65-.41-1.1-.73-1.34s-.71-.37-1.17-.37-.87.12-1.21.37-.59.69-.77,1.34c-.18.65-.27,1.58-.27,2.79v1.92c0,1.05.13,1.88.38,2.48.25.61.68,1.03,1.27,1.28.59.25,1.39.38,2.4.38.59,0,1.19-.05,1.8-.14.61-.09,1.24-.23,1.91-.4v3.51c-.78.19-1.5.33-2.17.42-.67.09-1.37.13-2.08.13Z"/>
  <path class="cls-1" d="m398.59,24.53c-.84,0-1.74-.08-2.72-.23-.97-.15-1.86-.36-2.66-.65v-3.73c.55.17,1.12.32,1.71.45.59.13,1.18.23,1.78.3.6.07,1.2.1,1.79.1,1.32,0,2.27-.23,2.88-.69s.9-1.1.9-1.94c0-.7-.21-1.26-.64-1.67-.43-.41-1.23-.82-2.4-1.21l-1.53-.51c-1.48-.5-2.69-1.26-3.63-2.27s-1.42-2.36-1.42-4.04c0-2.07.7-3.7,2.11-4.9,1.41-1.19,3.52-1.79,6.33-1.79.87,0,1.7.05,2.5.15.8.1,1.5.24,2.1.42v3.75c-.62-.19-1.29-.33-2.01-.43-.72-.1-1.44-.14-2.15-.14-1.08,0-1.94.11-2.56.33-.63.22-1.08.53-1.35.92s-.41.85-.41,1.36c0,.65.19,1.17.58,1.57.39.4,1.11.77,2.16,1.13l1.53.49c1.1.37,2.05.84,2.85,1.4.8.56,1.42,1.25,1.85,2.08s.65,1.82.65,2.98c0,1.39-.32,2.59-.97,3.61-.65,1.02-1.59,1.79-2.81,2.34-1.23.54-2.72.82-4.46.82Z"/>
  <path class="cls-1" d="m417.1,24.56c-1.87,0-3.39-.29-4.57-.87-1.18-.58-2.06-1.5-2.62-2.76-.56-1.26-.84-2.91-.84-4.95,0-1.86.27-3.41.8-4.67.54-1.25,1.31-2.18,2.33-2.8s2.24-.93,3.66-.93,2.52.31,3.45.94c.93.62,1.64,1.57,2.13,2.83.48,1.26.73,2.85.73,4.75v1.29h-9.84v-2.69h6.3l-.64.27c0-1.21-.08-2.14-.25-2.79-.16-.65-.41-1.1-.73-1.34s-.71-.37-1.17-.37-.87.12-1.21.37-.59.69-.77,1.34c-.18.65-.27,1.58-.27,2.79v1.92c0,1.05.13,1.88.38,2.48.25.61.68,1.03,1.27,1.28.59.25,1.39.38,2.4.38.59,0,1.19-.05,1.8-.14.61-.09,1.24-.23,1.91-.4v3.51c-.78.19-1.5.33-2.17.42-.67.09-1.37.13-2.08.13Z"/>
  <path class="cls-1" d="m425.21,24.24V7.83h3.66l.35,2.28h.21c.4-.91.94-1.56,1.63-1.94s1.46-.57,2.3-.57c.2,0,.41,0,.61.03s.38.04.52.08v4.06c-.22-.04-.46-.07-.7-.08-.25-.02-.49-.02-.72-.02-.46,0-.91.06-1.35.19-.44.12-.84.31-1.2.55-.36.25-.65.53-.86.86v10.96h-4.45Z"/>
  <path class="cls-1" d="m440.25,24.24l-4.76-16.41h4.59l3.35,12.92h-.4l3.33-12.92h4.44l-4.76,16.41h-5.8Z"/>
  <path class="cls-1" d="m455.36,5.42c-.95,0-1.65-.22-2.11-.66s-.69-1.04-.69-1.8.23-1.39.69-1.82,1.16-.65,2.11-.65,1.67.22,2.12.65c.45.44.68,1.04.68,1.82s-.23,1.36-.68,1.8c-.45.44-1.16.66-2.12.66Zm-2.23,18.83V7.83h4.47v16.41h-4.47Z"/>
  <path class="cls-1" d="m468.2,24.56c-1.57,0-2.91-.29-4.01-.88-1.1-.59-1.94-1.51-2.52-2.76s-.86-2.87-.86-4.86.32-3.67.97-4.91c.65-1.25,1.57-2.15,2.76-2.71s2.61-.85,4.25-.85c.52,0,1.03.02,1.52.07s.98.12,1.45.22v3.58c-.36-.08-.72-.14-1.1-.17-.38-.03-.72-.04-1.04-.04-.96,0-1.74.15-2.36.45-.61.3-1.07.8-1.36,1.49s-.44,1.62-.44,2.8c0,1.26.14,2.25.41,2.96.28.72.69,1.22,1.24,1.51s1.24.44,2.07.44c.39,0,.79-.04,1.22-.12.42-.08.88-.2,1.37-.36v3.6c-.57.19-1.16.33-1.78.42-.61.09-1.21.13-1.79.13Z"/>
  <path class="cls-1" d="m476.88,5.42c-.95,0-1.65-.22-2.11-.66s-.69-1.04-.69-1.8.23-1.39.69-1.82,1.16-.65,2.11-.65,1.67.22,2.12.65c.45.44.68,1.04.68,1.82s-.23,1.36-.68,1.8c-.45.44-1.16.66-2.12.66Zm-2.23,18.83V7.83h4.47v16.41h-4.47Z"/>
  <path class="cls-1" d="m489.31,24.56c-1.47,0-2.73-.29-3.77-.88-1.05-.59-1.84-1.51-2.39-2.75-.55-1.25-.83-2.84-.83-4.79s.28-3.61.83-4.88c.55-1.26,1.35-2.19,2.39-2.78,1.04-.59,2.3-.89,3.78-.89s2.71.31,3.76.92,1.84,1.54,2.39,2.8c.55,1.26.83,2.85.83,4.79s-.28,3.58-.83,4.83-1.35,2.17-2.39,2.76c-1.04.59-2.29.88-3.76.88Zm0-3.29c.51,0,.95-.13,1.31-.4.36-.27.64-.77.83-1.52.19-.74.28-1.81.28-3.21s-.1-2.54-.29-3.3c-.19-.76-.47-1.28-.83-1.56-.36-.28-.79-.42-1.29-.42s-.95.14-1.31.41c-.36.27-.64.79-.83,1.54-.19.75-.29,1.84-.29,3.26s.1,2.5.29,3.25c.19.75.47,1.26.83,1.54.36.27.79.41,1.32.41Z"/>
  <path class="cls-1" d="m503.48,24.56c-.78,0-1.52-.06-2.25-.17s-1.42-.28-2.1-.51v-3.48c.66.21,1.35.38,2.07.49.71.12,1.44.18,2.19.18.91,0,1.56-.15,1.95-.44s.59-.7.59-1.22c0-.43-.11-.75-.33-.98-.22-.22-.55-.39-1-.51l-2.13-.51c-1.25-.31-2.21-.84-2.85-1.6-.65-.76-.97-1.79-.97-3.09,0-1.55.58-2.79,1.73-3.73,1.15-.94,2.84-1.41,5.06-1.41.69,0,1.34.04,1.95.1.61.07,1.18.17,1.71.3v3.48c-.56-.14-1.11-.25-1.66-.32-.55-.07-1.13-.1-1.77-.1-.75,0-1.35.08-1.78.24-.43.16-.73.37-.92.62s-.28.53-.28.82c0,.39.11.69.33.9.22.21.55.38.99.5l2.14.52c1.29.31,2.24.83,2.88,1.58.63.74.95,1.77.95,3.09,0,1.63-.58,2.91-1.74,3.85-1.16.94-2.75,1.4-4.76,1.4Z"/>
  <g>
    <path class="cls-1" d="m227.49,60.5c-.56,0-1.13,0-1.72-.03-.59-.02-1.18-.05-1.77-.1-.6-.05-1.19-.1-1.77-.17v-21.78c.61-.13,1.24-.24,1.9-.34.65-.1,1.32-.17,2-.23.68-.05,1.37-.08,2.07-.08,3.63,0,6.35.92,8.16,2.75s2.72,4.71,2.72,8.62c0,2.65-.43,4.81-1.29,6.48s-2.14,2.9-3.86,3.69c-1.71.79-3.86,1.18-6.44,1.18Zm1.16-3.74c1.24,0,2.29-.23,3.15-.7.86-.47,1.5-1.26,1.94-2.37.44-1.11.66-2.62.66-4.54s-.22-3.42-.66-4.54c-.44-1.12-1.08-1.92-1.94-2.4s-1.89-.72-3.13-.72c-.3,0-.62.02-.97.04-.35.03-.68.08-.97.14v15.04c.39.03.74.05,1.06.05.32,0,.6,0,.86,0Z"/>
    <path class="cls-1" d="m244.73,41.42c-.95,0-1.65-.22-2.11-.66s-.69-1.04-.69-1.8.23-1.39.69-1.82,1.16-.65,2.11-.65,1.67.22,2.12.65c.45.44.68,1.04.68,1.82s-.23,1.36-.68,1.8c-.45.44-1.16.66-2.12.66Zm-2.23,18.83v-16.41h4.47v16.41h-4.47Z"/>
    <path class="cls-1" d="m255.84,67.14c-.68,0-1.43-.04-2.24-.14-.81-.09-1.57-.23-2.29-.42v-3.51c.71.2,1.42.35,2.1.44s1.37.14,2.04.14c1.32,0,2.31-.29,2.97-.86s.99-1.59.99-3.05v-1.21h-.21c-.33.58-.79,1.04-1.39,1.38-.6.34-1.31.51-2.11.51-.93,0-1.81-.27-2.65-.8-.84-.54-1.53-1.4-2.07-2.58-.54-1.19-.8-2.75-.8-4.69,0-2.89.68-5.07,2.04-6.55,1.36-1.48,3.47-2.22,6.33-2.22.59,0,1.2.03,1.83.1.63.06,1.24.16,1.84.28.6.13,1.16.28,1.67.47v14.56c0,2.9-.68,4.98-2.03,6.25-1.35,1.26-3.36,1.9-6.02,1.9Zm1.73-10.37c.36,0,.7-.07,1.04-.21.34-.14.61-.34.81-.6v-8.89c-.17-.04-.38-.07-.6-.1-.23-.02-.45-.04-.65-.04-1.08,0-1.92.36-2.52,1.07-.6.71-.9,2.03-.9,3.94,0,1.31.11,2.32.34,3.01.22.7.55,1.18.97,1.43.42.25.93.38,1.52.38Z"/>
    <path class="cls-1" d="m269.99,41.42c-.95,0-1.65-.22-2.11-.66s-.69-1.04-.69-1.8.23-1.39.69-1.82,1.16-.65,2.11-.65,1.66.22,2.12.65c.45.44.68,1.04.68,1.82s-.23,1.36-.68,1.8c-.46.44-1.16.66-2.12.66Zm-2.23,18.83v-16.41h4.47v16.41h-4.47Z"/>
    <path class="cls-1" d="m274.61,47.28v-3.45h10.71v3.45h-10.71Zm8.11,13.25c-1.81,0-3.21-.46-4.2-1.4-.99-.93-1.49-2.47-1.49-4.62v-10.68l.81-5.79h3.64v15.96c0,1.05.18,1.78.54,2.17.36.4.98.6,1.84.6.23,0,.48-.01.73-.04.25-.02.52-.06.82-.11v3.58c-.37.09-.79.17-1.27.23-.48.06-.95.09-1.42.09Z"/>
    <path class="cls-1" d="m292.04,60.54c-1.39,0-2.51-.42-3.38-1.27-.87-.84-1.3-1.99-1.3-3.44,0-1.56.48-2.78,1.45-3.66.97-.88,2.54-1.4,4.73-1.56l2.68-.23.61,2.55-2.78.23c-.78.06-1.36.28-1.74.65-.39.37-.58.88-.58,1.53s.17,1.15.5,1.47c.34.32.79.48,1.36.48.34,0,.69-.08,1.06-.22.37-.15.7-.42,1.01-.81v-6.38c0-.71-.11-1.27-.31-1.67-.21-.4-.55-.69-1.02-.86-.47-.17-1.09-.25-1.87-.25-.57,0-1.2.05-1.9.14-.69.1-1.37.24-2.02.44v-3.51c.7-.19,1.48-.33,2.34-.44.86-.1,1.67-.15,2.43-.15,1.52,0,2.77.21,3.76.62.99.41,1.72,1.09,2.2,2.04.47.95.71,2.23.71,3.84v10.17h-3.63l-.34-1.72h-.2c-.4.72-.93,1.24-1.58,1.55-.66.32-1.39.47-2.2.47Z"/>
    <path class="cls-1" d="m303.77,60.24v-24.24h4.45v24.24h-4.45Z"/>
    <path class="cls-1" d="m319.47,60.56c-1.87,0-3.39-.29-4.57-.87-1.18-.58-2.06-1.5-2.62-2.76-.56-1.26-.84-2.91-.84-4.95,0-1.86.27-3.41.8-4.67.54-1.25,1.31-2.18,2.33-2.8s2.24-.93,3.66-.93,2.52.31,3.45.94c.93.62,1.64,1.57,2.13,2.83.48,1.26.73,2.85.73,4.75v1.29h-9.84v-2.69h6.3l-.64.27c0-1.21-.08-2.14-.25-2.79-.16-.65-.41-1.1-.73-1.34s-.71-.37-1.17-.37-.87.12-1.21.37-.59.69-.77,1.34c-.18.65-.27,1.58-.27,2.79v1.92c0,1.05.13,1.88.38,2.48.25.6.68,1.03,1.27,1.28.59.25,1.39.38,2.4.38.59,0,1.19-.05,1.8-.14.61-.09,1.24-.23,1.91-.4v3.51c-.78.19-1.5.33-2.17.42s-1.37.14-2.08.14Z"/>
    <path class="cls-1" d="m331.54,60.56c-.78,0-1.52-.06-2.25-.17-.72-.11-1.42-.28-2.1-.51v-3.48c.66.21,1.35.38,2.07.5s1.44.18,2.19.18c.91,0,1.56-.15,1.95-.44s.59-.7.59-1.22c0-.43-.11-.75-.33-.97s-.55-.39-1-.51l-2.13-.51c-1.25-.31-2.21-.84-2.85-1.6-.65-.76-.97-1.79-.97-3.09,0-1.55.58-2.79,1.73-3.73,1.15-.94,2.84-1.41,5.06-1.41.69,0,1.34.04,1.95.1.61.07,1.18.17,1.71.3v3.48c-.56-.14-1.11-.25-1.66-.32-.55-.07-1.13-.1-1.77-.1-.75,0-1.35.08-1.78.24-.43.16-.73.37-.92.62s-.28.53-.28.82c0,.39.11.69.33.9.22.21.55.38.99.5l2.14.52c1.29.31,2.24.83,2.88,1.58.63.74.95,1.77.95,3.09,0,1.63-.58,2.91-1.74,3.85-1.16.94-2.75,1.4-4.76,1.4Z"/>
    <path class="cls-1" d="m341.26,65.37c.47-1.07.83-2.06,1.09-2.97.26-.91.39-1.83.39-2.76l.99.85h-.57c-.84,0-1.54-.25-2.1-.76s-.84-1.2-.84-2.07.27-1.59.8-2.08,1.22-.74,2.07-.74c.97,0,1.71.31,2.23.92.51.61.77,1.53.77,2.76s-.21,2.39-.62,3.6-.96,2.29-1.63,3.25h-2.59Z"/>
    <path class="cls-1" d="m356.99,60.24v-22.2h4.51v22.2h-4.51Z"/>
    <path class="cls-1" d="m365.58,60.24v-16.41h3.7l.34,1.74h.2c.52-.66,1.13-1.16,1.84-1.49.7-.33,1.49-.5,2.36-.5s1.69.18,2.39.55c.71.37,1.27.97,1.68,1.81s.62,1.97.62,3.39v10.92h-4.45v-10.6c0-.83-.17-1.4-.5-1.71-.34-.31-.78-.46-1.33-.46-.28,0-.56.04-.86.13s-.58.22-.84.4c-.27.18-.5.42-.69.71v11.55h-4.45Z"/>
    <path class="cls-1" d="m381.13,47.28v-3.45h10.65v3.45h-10.65Zm2.42,12.96v-18.08c0-1.37.25-2.54.74-3.5.49-.96,1.24-1.7,2.23-2.21.99-.5,2.24-.76,3.74-.76.34,0,.69.01,1.06.04.37.02.72.07,1.05.13v3.51c-.27-.04-.51-.07-.74-.09s-.47-.03-.73-.03c-1.04,0-1.8.21-2.26.63-.47.42-.7,1.1-.7,2.02v18.33h-4.39Z"/>
    <path class="cls-1" d="m400.22,60.56c-1.47,0-2.73-.3-3.77-.89-1.05-.59-1.84-1.51-2.39-2.75s-.83-2.84-.83-4.79.28-3.61.83-4.88c.55-1.26,1.35-2.19,2.39-2.78,1.04-.59,2.3-.89,3.78-.89s2.71.31,3.76.92,1.84,1.54,2.39,2.8c.55,1.26.83,2.85.83,4.79s-.28,3.58-.83,4.83-1.35,2.17-2.39,2.76-2.29.89-3.76.89Zm0-3.29c.51,0,.95-.14,1.31-.41.36-.27.64-.77.83-1.51.19-.74.28-1.81.28-3.21s-.1-2.54-.29-3.3c-.19-.76-.47-1.28-.83-1.56-.36-.28-.79-.42-1.29-.42s-.95.14-1.31.41c-.36.27-.64.79-.83,1.54-.19.75-.29,1.84-.29,3.26s.1,2.5.29,3.25c.19.75.47,1.26.83,1.54.36.28.79.41,1.32.41Z"/>
    <path class="cls-1" d="m410.43,60.24v-16.41h3.66l.35,2.28h.21c.4-.91.94-1.56,1.63-1.94s1.46-.57,2.3-.57c.2,0,.41,0,.61.03s.38.04.52.08v4.06c-.22-.04-.46-.07-.7-.08-.25-.02-.49-.02-.72-.02-.46,0-.91.06-1.35.19-.44.12-.84.31-1.2.55-.36.25-.65.53-.86.86v10.96h-4.45Z"/>
    <path class="cls-1" d="m422.25,60.24v-16.41h3.7l.34,1.74h.2c.54-.68,1.16-1.18,1.84-1.51.69-.32,1.47-.49,2.33-.49.81,0,1.54.18,2.2.52.66.35,1.19.93,1.58,1.75.39.82.59,1.91.59,3.28v11.12h-4.36v-10.62c0-.83-.16-1.4-.48-1.7-.32-.31-.74-.46-1.25-.46-.25,0-.5.04-.78.13s-.54.22-.8.4-.48.43-.67.73v11.52h-4.45Zm16.74,0v-10.62c0-.83-.17-1.4-.51-1.7-.34-.31-.77-.46-1.28-.46-.24,0-.51.04-.8.13-.29.09-.58.23-.86.44s-.52.46-.71.79l-.8-2.7c.57-.87,1.27-1.51,2.1-1.93.83-.42,1.69-.62,2.58-.62s1.68.18,2.39.55c.72.37,1.29.97,1.71,1.82s.63,2,.63,3.44v10.86h-4.45Z"/>
    <path class="cls-1" d="m451.11,60.54c-1.39,0-2.51-.42-3.38-1.27-.87-.84-1.3-1.99-1.3-3.44,0-1.56.48-2.78,1.45-3.66.97-.88,2.54-1.4,4.73-1.56l2.68-.23.61,2.55-2.78.23c-.78.06-1.36.28-1.74.65-.39.37-.58.88-.58,1.53s.17,1.15.5,1.47c.34.32.79.48,1.36.48.34,0,.69-.08,1.06-.22.37-.15.7-.42,1.01-.81v-6.38c0-.71-.11-1.27-.31-1.67-.21-.4-.55-.69-1.02-.86-.47-.17-1.09-.25-1.87-.25-.57,0-1.2.05-1.9.14-.69.1-1.37.24-2.02.44v-3.51c.7-.19,1.48-.33,2.34-.44.86-.1,1.67-.15,2.43-.15,1.52,0,2.77.21,3.76.62.99.41,1.72,1.09,2.2,2.04.47.95.71,2.23.71,3.84v10.17h-3.63l-.34-1.72h-.2c-.4.72-.93,1.24-1.58,1.55-.66.32-1.39.47-2.2.47Zm.02-18.79l2.91-5.75h4.5l-3.55,5.75h-3.86Z"/>
    <path class="cls-1" d="m461.35,47.28v-3.45h10.71v3.45h-10.71Zm8.11,13.25c-1.81,0-3.21-.46-4.2-1.4-.99-.93-1.49-2.47-1.49-4.62v-10.68l.81-5.79h3.64v15.96c0,1.05.18,1.78.54,2.17.36.4.98.6,1.84.6.23,0,.48-.01.73-.04.25-.02.52-.06.82-.11v3.58c-.37.09-.79.17-1.27.23-.48.06-.95.09-1.42.09Z"/>
    <path class="cls-1" d="m477.14,41.42c-.95,0-1.65-.22-2.11-.66s-.69-1.04-.69-1.8.23-1.39.69-1.82,1.16-.65,2.11-.65,1.67.22,2.12.65c.45.44.68,1.04.68,1.82s-.23,1.36-.68,1.8c-.45.44-1.16.66-2.12.66Zm-2.23,18.83v-16.41h4.47v16.41h-4.47Z"/>
    <path class="cls-1" d="m489.97,60.56c-1.57,0-2.91-.3-4.01-.89-1.1-.59-1.94-1.51-2.52-2.76s-.86-2.87-.86-4.86.32-3.67.97-4.91c.65-1.25,1.57-2.15,2.76-2.71s2.61-.85,4.25-.85c.52,0,1.03.02,1.52.07s.98.12,1.45.22v3.58c-.36-.08-.72-.14-1.1-.17-.38-.03-.72-.04-1.04-.04-.96,0-1.74.15-2.36.45-.61.3-1.07.8-1.36,1.49s-.44,1.62-.44,2.8c0,1.26.14,2.25.41,2.96s.69,1.22,1.24,1.51,1.24.43,2.07.43c.39,0,.79-.04,1.22-.12.42-.08.88-.2,1.37-.36v3.6c-.57.19-1.16.33-1.78.42-.61.09-1.21.14-1.79.14Z"/>
    <path class="cls-1" d="m502.73,60.56c-1.47,0-2.73-.3-3.77-.89-1.05-.59-1.84-1.51-2.39-2.75s-.83-2.84-.83-4.79.28-3.61.83-4.88c.55-1.26,1.35-2.19,2.39-2.78,1.04-.59,2.3-.89,3.78-.89s2.71.31,3.76.92,1.84,1.54,2.39,2.8c.55,1.26.83,2.85.83,4.79s-.28,3.58-.83,4.83-1.35,2.17-2.39,2.76-2.29.89-3.76.89Zm0-3.29c.51,0,.95-.14,1.31-.41.36-.27.64-.77.83-1.51.19-.74.28-1.81.28-3.21s-.1-2.54-.29-3.3c-.19-.76-.47-1.28-.83-1.56-.36-.28-.79-.42-1.29-.42s-.95.14-1.31.41c-.36.27-.64.79-.83,1.54-.19.75-.29,1.84-.29,3.26s.1,2.5.29,3.25c.19.75.47,1.26.83,1.54.36.28.79.41,1.32.41Z"/>
    <path class="cls-1" d="m516.9,60.56c-.78,0-1.52-.06-2.25-.17-.72-.11-1.42-.28-2.1-.51v-3.48c.66.21,1.35.38,2.07.5s1.44.18,2.19.18c.91,0,1.56-.15,1.95-.44s.59-.7.59-1.22c0-.43-.11-.75-.33-.97s-.55-.39-1-.51l-2.13-.51c-1.25-.31-2.21-.84-2.85-1.6-.65-.76-.97-1.79-.97-3.09,0-1.55.58-2.79,1.73-3.73,1.15-.94,2.84-1.41,5.06-1.41.69,0,1.34.04,1.95.1.61.07,1.18.17,1.71.3v3.48c-.56-.14-1.11-.25-1.66-.32-.55-.07-1.13-.1-1.77-.1-.75,0-1.35.08-1.78.24-.43.16-.73.37-.92.62s-.28.53-.28.82c0,.39.11.69.33.9.22.21.55.38.99.5l2.14.52c1.29.31,2.24.83,2.88,1.58.63.74.95,1.77.95,3.09,0,1.63-.58,2.91-1.74,3.85-1.16.94-2.75,1.4-4.76,1.4Z"/>
  </g>
  <g>
    <path class="cls-1" d="m225.24,96.24l-4.76-16.41h4.59l4.12,16.41h-3.95Zm-.5,6.6l1.94-6.6,1.35-3.5,3.34-12.92h4.44l-6.7,23.01h-4.36Z"/>
    <path class="cls-1" d="m250.46,96.24v-18.25h-6.26v-3.95h17.04v3.95h-6.24v18.25h-4.54Z"/>
    <path class="cls-1" d="m271.08,96.56c-1.87,0-3.39-.29-4.57-.87-1.18-.58-2.06-1.5-2.62-2.76-.56-1.26-.84-2.91-.84-4.95,0-1.86.27-3.42.8-4.67s1.31-2.19,2.33-2.81c1.02-.62,2.24-.93,3.66-.93s2.52.31,3.45.94,1.64,1.57,2.13,2.83c.48,1.26.73,2.85.73,4.76v1.29h-9.84v-2.68h6.3l-.64.27c0-1.21-.08-2.14-.24-2.79-.16-.65-.41-1.1-.73-1.34-.32-.25-.71-.37-1.17-.37s-.87.12-1.21.37c-.34.25-.6.69-.77,1.34-.18.65-.27,1.58-.27,2.79v1.92c0,1.05.13,1.88.38,2.48.25.6.68,1.03,1.27,1.28s1.39.38,2.4.38c.59,0,1.19-.05,1.8-.14.61-.09,1.24-.23,1.91-.4v3.51c-.78.19-1.5.33-2.17.42-.67.09-1.37.14-2.08.14Z"/>
    <path class="cls-1" d="m279.19,96.24v-24.24h4.45v24.24h-4.45Z"/>
    <path class="cls-1" d="m294.89,96.56c-1.87,0-3.39-.29-4.57-.87-1.18-.58-2.06-1.5-2.62-2.76-.56-1.26-.84-2.91-.84-4.95,0-1.86.27-3.42.8-4.67.54-1.25,1.31-2.19,2.33-2.81,1.01-.62,2.24-.93,3.66-.93s2.52.31,3.45.94c.93.62,1.64,1.57,2.13,2.83.48,1.26.73,2.85.73,4.76v1.29h-9.84v-2.68h6.3l-.64.27c0-1.21-.08-2.14-.25-2.79-.16-.65-.41-1.1-.73-1.34s-.71-.37-1.17-.37-.87.12-1.21.37-.59.69-.77,1.34c-.18.65-.27,1.58-.27,2.79v1.92c0,1.05.13,1.88.38,2.48.25.6.68,1.03,1.27,1.28.59.25,1.39.38,2.4.38.59,0,1.19-.05,1.8-.14.61-.09,1.24-.23,1.91-.4v3.51c-.78.19-1.5.33-2.17.42s-1.37.14-2.08.14Z"/>
    <path class="cls-1" d="m309.71,96.56c-1.57,0-2.91-.3-4.01-.89-1.1-.59-1.94-1.51-2.52-2.76s-.86-2.87-.86-4.86.32-3.67.97-4.91c.65-1.25,1.57-2.15,2.76-2.71s2.61-.85,4.25-.85c.52,0,1.03.02,1.52.07s.98.12,1.45.22v3.58c-.36-.08-.72-.13-1.1-.17-.38-.03-.72-.04-1.04-.04-.96,0-1.74.15-2.36.45-.61.3-1.07.79-1.36,1.48-.3.69-.44,1.62-.44,2.81,0,1.26.14,2.25.41,2.96s.69,1.22,1.24,1.51,1.24.43,2.07.43c.39,0,.79-.04,1.22-.12.42-.08.88-.2,1.37-.36v3.6c-.57.19-1.16.33-1.78.42-.61.09-1.21.14-1.79.14Z"/>
    <path class="cls-1" d="m322.47,96.56c-1.47,0-2.73-.3-3.77-.89-1.05-.59-1.84-1.51-2.39-2.75s-.83-2.84-.83-4.79.28-3.62.83-4.88,1.35-2.19,2.39-2.78c1.04-.59,2.3-.89,3.78-.89s2.71.31,3.76.92c1.05.61,1.84,1.54,2.39,2.8s.83,2.85.83,4.79-.28,3.58-.83,4.83-1.35,2.17-2.39,2.76-2.29.89-3.76.89Zm0-3.29c.51,0,.95-.14,1.31-.41.36-.27.64-.77.83-1.51.19-.74.28-1.81.28-3.21s-.1-2.54-.29-3.3c-.19-.76-.47-1.28-.83-1.56-.36-.28-.79-.42-1.29-.42s-.95.14-1.31.41c-.36.28-.64.79-.83,1.54-.19.75-.29,1.83-.29,3.25s.1,2.5.29,3.25c.19.75.47,1.26.83,1.54.36.28.79.41,1.32.41Z"/>
    <path class="cls-1" d="m332.68,96.24v-16.41h3.7l.34,1.74h.2c.54-.68,1.16-1.18,1.84-1.51.69-.32,1.47-.49,2.33-.49.81,0,1.54.17,2.2.53.66.35,1.19.93,1.58,1.75.39.82.59,1.91.59,3.28v11.12h-4.36v-10.62c0-.83-.16-1.4-.48-1.7-.32-.3-.74-.46-1.25-.46-.25,0-.5.04-.78.13s-.54.22-.8.41c-.26.18-.48.43-.67.73v11.52h-4.45Zm16.74,0v-10.62c0-.83-.17-1.4-.51-1.7s-.77-.46-1.28-.46c-.24,0-.51.04-.8.14-.29.09-.58.23-.86.43s-.52.46-.71.79l-.8-2.7c.57-.87,1.27-1.51,2.1-1.93.83-.41,1.69-.62,2.58-.62s1.68.18,2.39.55c.72.37,1.29.97,1.71,1.82s.63,2,.63,3.43v10.86h-4.45Z"/>
    <path class="cls-1" d="m362.22,96.53c-.88,0-1.67-.18-2.36-.55-.7-.36-1.25-.96-1.67-1.8s-.62-1.96-.62-3.38v-10.96h4.45v10.61c0,.83.17,1.4.5,1.72.34.32.76.48,1.27.48.23,0,.5-.04.79-.13.29-.08.57-.22.84-.4.27-.18.5-.41.68-.69v-11.59h4.47v16.41h-3.72l-.32-1.71h-.21c-.54.67-1.16,1.17-1.84,1.5s-1.44.5-2.26.5Z"/>
    <path class="cls-1" d="m374.44,96.24v-16.41h3.7l.34,1.74h.2c.52-.66,1.13-1.16,1.84-1.49.7-.33,1.49-.5,2.36-.5s1.69.18,2.39.55,1.27.97,1.68,1.81c.41.84.62,1.97.62,3.39v10.92h-4.45v-10.61c0-.83-.17-1.4-.5-1.71-.34-.31-.78-.46-1.33-.46-.28,0-.56.04-.86.13s-.58.22-.84.4c-.27.18-.5.42-.69.71v11.55h-4.45Z"/>
    <path class="cls-1" d="m393.6,77.42c-.95,0-1.65-.22-2.11-.66-.46-.44-.69-1.04-.69-1.8s.23-1.39.69-1.82c.46-.44,1.16-.65,2.11-.65s1.67.22,2.12.65c.45.43.68,1.04.68,1.82s-.23,1.36-.68,1.8c-.45.44-1.16.66-2.12.66Zm-2.23,18.83v-16.41h4.47v16.41h-4.47Z"/>
    <path class="cls-1" d="m406.44,96.56c-1.57,0-2.91-.3-4.01-.89-1.1-.59-1.94-1.51-2.52-2.76s-.86-2.87-.86-4.86.32-3.67.97-4.91c.65-1.25,1.57-2.15,2.76-2.71s2.61-.85,4.25-.85c.52,0,1.03.02,1.52.07s.98.12,1.45.22v3.58c-.36-.08-.72-.13-1.1-.17-.38-.03-.72-.04-1.04-.04-.96,0-1.74.15-2.36.45-.61.3-1.07.79-1.36,1.48-.3.69-.44,1.62-.44,2.81,0,1.26.14,2.25.41,2.96s.69,1.22,1.24,1.51,1.24.43,2.07.43c.39,0,.79-.04,1.22-.12.42-.08.88-.2,1.37-.36v3.6c-.57.19-1.16.33-1.78.42-.61.09-1.21.14-1.79.14Z"/>
    <path class="cls-1" d="m416.75,96.54c-1.39,0-2.51-.42-3.38-1.27-.87-.84-1.3-1.99-1.3-3.44,0-1.56.48-2.78,1.45-3.66.97-.88,2.54-1.4,4.73-1.56l2.68-.23.61,2.55-2.78.22c-.78.06-1.36.28-1.74.65-.39.37-.58.88-.58,1.53s.17,1.15.5,1.47c.34.32.79.48,1.36.48.34,0,.69-.08,1.06-.22.37-.15.7-.42,1.01-.81v-6.38c0-.71-.11-1.27-.31-1.67-.21-.41-.55-.69-1.02-.86-.47-.17-1.09-.25-1.87-.25-.57,0-1.2.05-1.9.14-.69.1-1.37.24-2.02.44v-3.51c.7-.19,1.48-.33,2.34-.43.86-.1,1.67-.15,2.43-.15,1.52,0,2.77.21,3.76.62.99.41,1.72,1.09,2.2,2.04s.71,2.23.71,3.84v10.17h-3.63l-.34-1.72h-.2c-.4.72-.93,1.24-1.58,1.55-.66.32-1.39.47-2.2.47Z"/>
    <path class="cls-1" d="m435.2,96.56c-1.57,0-2.91-.3-4.01-.89-1.1-.59-1.94-1.51-2.52-2.76s-.86-2.87-.86-4.86.32-3.67.97-4.91c.65-1.25,1.57-2.15,2.76-2.71s2.61-.85,4.25-.85c.52,0,1.03.02,1.52.07s.98.12,1.45.22v3.58c-.36-.08-.72-.13-1.1-.17-.38-.03-.72-.04-1.04-.04-.96,0-1.74.15-2.36.45-.61.3-1.07.79-1.36,1.48-.3.69-.44,1.62-.44,2.81,0,1.26.14,2.25.41,2.96s.69,1.22,1.24,1.51,1.24.43,2.07.43c.39,0,.79-.04,1.22-.12.42-.08.88-.2,1.37-.36v3.6c-.57.19-1.16.33-1.78.42-.61.09-1.21.14-1.79.14Z"/>
    <path class="cls-1" d="m443.87,77.42c-.95,0-1.65-.22-2.11-.66-.46-.44-.69-1.04-.69-1.8s.23-1.39.69-1.82c.46-.44,1.16-.65,2.11-.65s1.67.22,2.12.65c.45.43.68,1.04.68,1.82s-.23,1.36-.68,1.8c-.45.44-1.16.66-2.12.66Zm-2.23,18.83v-16.41h4.47v16.41h-4.47Z"/>
    <path class="cls-1" d="m456.31,96.56c-1.47,0-2.73-.3-3.77-.89-1.05-.59-1.84-1.51-2.39-2.75s-.83-2.84-.83-4.79.28-3.62.83-4.88,1.35-2.19,2.39-2.78c1.04-.59,2.3-.89,3.78-.89s2.71.31,3.76.92c1.05.61,1.84,1.54,2.39,2.8s.83,2.85.83,4.79-.28,3.58-.83,4.83-1.35,2.17-2.39,2.76-2.29.89-3.76.89Zm0-3.29c.51,0,.95-.14,1.31-.41.36-.27.64-.77.83-1.51.19-.74.28-1.81.28-3.21s-.1-2.54-.29-3.3c-.19-.76-.47-1.28-.83-1.56-.36-.28-.79-.42-1.29-.42s-.95.14-1.31.41c-.36.28-.64.79-.83,1.54-.19.75-.29,1.83-.29,3.25s.1,2.5.29,3.25c.19.75.47,1.26.83,1.54.36.28.79.41,1.32.41Z"/>
    <path class="cls-1" d="m466.52,96.24v-16.41h3.7l.34,1.74h.2c.52-.66,1.13-1.16,1.84-1.49.7-.33,1.49-.5,2.36-.5s1.69.18,2.39.55,1.27.97,1.68,1.81c.41.84.62,1.97.62,3.39v10.92h-4.45v-10.61c0-.83-.17-1.4-.5-1.71-.34-.31-.78-.46-1.33-.46-.28,0-.56.04-.86.13s-.58.22-.84.4c-.27.18-.5.42-.69.71v11.55h-4.45Z"/>
    <path class="cls-1" d="m490.8,96.56c-1.87,0-3.39-.29-4.57-.87-1.18-.58-2.06-1.5-2.62-2.76-.56-1.26-.84-2.91-.84-4.95,0-1.86.27-3.42.8-4.67.54-1.25,1.31-2.19,2.33-2.81,1.01-.62,2.24-.93,3.66-.93s2.52.31,3.45.94c.93.62,1.64,1.57,2.13,2.83.48,1.26.73,2.85.73,4.76v1.29h-9.84v-2.68h6.3l-.64.27c0-1.21-.08-2.14-.25-2.79-.16-.65-.41-1.1-.73-1.34s-.71-.37-1.17-.37-.87.12-1.21.37-.59.69-.77,1.34c-.18.65-.27,1.58-.27,2.79v1.92c0,1.05.13,1.88.38,2.48.25.6.68,1.03,1.27,1.28.59.25,1.39.38,2.4.38.59,0,1.19-.05,1.8-.14.61-.09,1.24-.23,1.91-.4v3.51c-.78.19-1.5.33-2.17.42s-1.37.14-2.08.14Z"/>
    <path class="cls-1" d="m502.87,96.56c-.78,0-1.52-.06-2.25-.17-.72-.11-1.42-.28-2.1-.51v-3.48c.66.21,1.35.38,2.07.5s1.44.18,2.19.18c.91,0,1.56-.15,1.95-.44s.59-.7.59-1.22c0-.43-.11-.75-.33-.97s-.55-.39-1-.51l-2.13-.51c-1.25-.31-2.21-.84-2.85-1.6s-.97-1.79-.97-3.09c0-1.55.58-2.79,1.73-3.74,1.15-.94,2.84-1.41,5.06-1.41.69,0,1.34.04,1.95.11.61.07,1.18.17,1.71.3v3.48c-.56-.14-1.11-.25-1.66-.31-.55-.07-1.13-.11-1.77-.11-.75,0-1.35.08-1.78.24-.43.16-.73.37-.92.62-.18.26-.28.53-.28.82,0,.39.11.69.33.9.22.21.55.38.99.5l2.14.53c1.29.31,2.24.83,2.88,1.57.63.74.95,1.77.95,3.09,0,1.63-.58,2.91-1.74,3.85-1.16.94-2.75,1.4-4.76,1.4Z"/>
  </g>
</svg>