<?xml version="1.0" encoding="UTF-8"?>
<svg id="Capa_1" data-name="Capa 1" xmlns="http://www.w3.org/2000/svg" viewBox="0 0 512 448">
  <defs>
    <style>
      .cls-1 {
        fill: #fff;
      }
    </style>
  </defs>
  <path class="cls-1" d="m32,0c17.7,0,32,14.3,32,32v336c0,8.8,7.2,16,16,16h400c17.7,0,32,14.3,32,32s-14.3,32-32,32H80c-44.2,0-80-35.8-80-80V32C0,14.3,14.3,0,32,0Zm128,192c17.7,0,32,14.3,32,32v64c0,17.7-14.3,32-32,32s-32-14.3-32-32v-64c0-17.7,14.3-32,32-32Zm128-64v160c0,17.7-14.3,32-32,32s-32-14.3-32-32v-160c0-17.7,14.3-32,32-32s32,14.3,32,32Zm64,32c17.7,0,32,14.3,32,32v96c0,17.7-14.3,32-32,32s-32-14.3-32-32v-96c0-17.7,14.3-32,32-32Zm128-96v224c0,17.7-14.3,32-32,32s-32-14.3-32-32V64c0-17.7,14.3-32,32-32s32,14.3,32,32Z"/>
</svg>