<svg xmlns="http://www.w3.org/2000/svg" width="78" height="78" viewBox="0 0 78 78">
  <g id="escarapelaCorazon" transform="translate(2 2.102)">
    <g id="Elipse_32" data-name="Elipse 32" transform="translate(0 -0.102)" fill="#32bbee" stroke="#fff" stroke-width="2">
      <circle cx="37" cy="37" r="37" stroke="none"/>
      <circle cx="37" cy="37" r="38" fill="none"/>
    </g>
    <circle id="Elipse_33" data-name="Elipse 33" cx="24.676" cy="24.676" r="24.676" transform="translate(12.242 12.237)" fill="#fff"/>
    <path id="Trazado_168" data-name="Trazado 168" d="M168.021,172.894a7.484,7.484,0,0,0-14.29-3.111,7.484,7.484,0,1,0-12.63,7.811h0c.011.013.023.028.032.041l.028.034c3.906,4.8,12.57,12.629,12.57,12.629s8.663-7.832,12.57-12.629l.028-.034c.011-.013.023-.028.032-.041h0A7.45,7.45,0,0,0,168.021,172.894Z" transform="translate(-116.812 -138.573)" fill="#fdc511"/>
  </g>
</svg>
