<?xml version="1.0" encoding="UTF-8"?>
<svg id="Capa_1" data-name="Capa 1" xmlns="http://www.w3.org/2000/svg" viewBox="0 0 455 455">
  <defs>
    <style>
      .cls-1 {
        fill: #fff;
      }

      .cls-2 {
        fill: #fdc511;
      }

      .cls-3 {
        fill: #32bbee;
      }
    </style>
  </defs>
  <circle class="cls-3" cx="227.5" cy="227.5" r="227.5"/>
  <circle class="cls-1" cx="227.5" cy="227.5" r="152.06"/>
  <path class="cls-2" d="m315.56,211.53c0-25.47-20.65-46.12-46.12-46.12-18.63,0-34.66,11.05-41.94,26.95-7.28-15.9-23.31-26.95-41.94-26.95-25.47,0-46.12,20.65-46.12,46.12,0,10.97,3.84,21.04,10.23,28.96h0c.07.08.14.17.2.25.06.07.11.14.17.21,24.07,29.56,77.46,77.82,77.46,77.82,0,0,53.38-48.26,77.46-77.82.06-.07.11-.14.17-.21.07-.08.14-.17.2-.25h0c6.4-7.92,10.23-17.99,10.23-28.96Z"/>
</svg>