<?xml version="1.0" encoding="UTF-8"?>
<svg id="Capa_1" data-name="Capa 1" xmlns="http://www.w3.org/2000/svg" viewBox="0 0 824.01 564.57">
  <defs>
    <style>
      .cls-1 {
        fill: #E5E5E5;
      }
    </style>
  </defs>
  <path class="cls-1" d="m380.46,276.4l-88.46,103.58c-7.51-18.46-13.07-37.91-16.44-58.11l38.83-45.47h66.07Z"/>
  <path class="cls-1" d="m452.86,345.92l-103.91,121.65c-11.83-12.28-22.53-25.66-31.94-39.96l114.28-133.8c2.9,19.29,10.48,37.07,21.57,52.11h0Z"/>
  <path class="cls-1" d="m542.71,393.88l-112.71,131.97c-15.48-7.31-30.16-16.03-43.89-25.98l103.55-121.23c15.77,8.98,33.81,14.41,53.05,15.24h0Z"/>
  <path class="cls-1" d="m777.24,276.4l-235.5,275.73h0c-20.46-.44-40.33-3.11-59.45-7.77l228.87-267.96h66.08Z"/>
  <path class="cls-1" d="m822.57,304.36c-11.73,115.37-94.5,209.74-203.86,238.68l203.86-238.68Z"/>
  <g>
    <path class="cls-1" d="m705.89,49.67l-103.9,121.65c14.79,7.65,27.75,18.34,38.07,31.25l103.54-121.22c-11.58-11.64-24.2-22.24-37.7-31.68h0Z"/>
    <path class="cls-1" d="m776.09,120.64l-112.65,131.89c1.53,7.52,2.34,15.3,2.37,23.27h45.86l90.93-106.45c-7.21-17.19-16.12-33.49-26.5-48.71h0Z"/>
    <path class="cls-1" d="m824.01,275.8c-.02-16.73-1.53-33.11-4.4-49.02l-41.86,49.02h46.26Z"/>
    <path class="cls-1" d="m610.45,7.12l-229.48,268.68h48.99c.18-64.72,52.48-117.18,117.15-117.59l114.33-133.86c-16.22-7.33-33.28-13.13-50.98-17.23h0Z"/>
    <path class="cls-1" d="m547.89,0c-25.18,0-49.56,3.39-72.74,9.7l-201.73,236.19c-1.07,9.83-1.64,19.8-1.65,29.91h43.13L550.44.03c-.85,0-1.7-.03-2.55-.03Z"/>
  </g>
  <path class="cls-1" d="m464.46,564.57l17.83-20.21c-17.75-4.19-35.98-11.27-52.22-18.72l-33.25,38.93h67.64Z"/>
  <path class="cls-1" d="m331.59,564.57l54.53-64.7c-13.71-9.71-25.42-20.5-37.11-32.5l-83.02,97.2h65.6Z"/>
  <path class="cls-1" d="m200.36,564.57l116.65-136.96c-9.99-14.86-18.05-30.96-25.01-47.7l-157.72,184.66h66.08Z"/>
  <path class="cls-1" d="m68.83,564.57l206.72-242.7c-2.38-15.34-3.67-30.14-3.81-46.5-.08-9.03.81-20.59,1.67-29.48L0,564.34l21.32.23h47.51Z"/>
</svg>