<?xml version="1.0" encoding="UTF-8"?>
<svg id="Capa_1" data-name="Capa 1" xmlns="http://www.w3.org/2000/svg" viewBox="0 0 215.1 89.11">
  <defs>
    <style>
      .cls-1 {
        fill: #fff;
      }

      .cls-2 {
        fill: none;
        isolation: isolate;
      }
    </style>
  </defs>
  <g>
    <path class="cls-1" d="m29.19,12.06h0c.83-.12,1.54-.24,2.13-.24,2.01,0,2.36.71,2.36.71,0,0,.12.12.24.12h.12s.12,0,.12-.12v-.24s-.47-1.3-2.6-1.54c0,0-1.18-.12-2.36.12-.35,0-.47.83-.47.83v.24c.24.12.35.12.47.12"/>
    <path class="cls-1" d="m25.76,12.88h0c-.47-.24-1.54-.12-1.54-.12-1.77,0-2.25,1.18-2.25,1.18v.24c0,.12.12.12.12.12.35.12.47-.24.47-.24,0,0,.12-.35.95-.59h0v.35c0,.47.35.95.95.95s.95-.35.95-.95c0-.12,0-.24-.12-.35h0c.35.12.59.35.71.59,0,.12.12.12.47.12.12,0,.24,0,.24-.12v-.12c-.35-.71-.95-.95-.95-1.06"/>
    <path class="cls-1" d="m29.07,14.3c.35,0,.47,0,.47-.12.12-.24.35-.47.71-.59h0c0,.12-.12.24-.12.35,0,.47.35.95.95.95s.95-.35.95-.95v-.35h0c.71.24.83.47.95.59,0,0,.12.24.47.12q.12,0,.12-.12v-.24s-.47-1.06-2.25-1.18c-.12,0-1.18,0-1.65.12,0,0-.59.24-.83,1.18v.12c0,.12.12.12.24.12"/>
    <path class="cls-1" d="m21.27,12.76h0s.12,0,0,0c.35,0,.35-.12.35-.12,0,0,.47-1.18,4.49-.59h.24v-.24s-.12-.71-.47-.83c-.47-.12-.95-.12-1.42-.12h-.95c-2.13.24-2.6,1.54-2.6,1.54v.24c.24.12.35.12.35.12"/>
    <path class="cls-1" d="m55.08,56.38c0-.12,0-.35-.12-.35-.12-.12-.24-.12-.35-.12.12-.24.24-.47.24-.59.35-.95.47-2.01.47-3.19,0-.12-.12-.24-.24-.35s-.24-.12-.35-.12c.12-.24.12-.35.24-.59.24-.95.35-2.01.24-3.19,0-.12-.12-.24-.24-.35-.12,0-.24-.12-.35,0,.12-.24.12-.47.12-.71.12-.95.12-2.13-.12-3.19,0-.12-.12-.24-.24-.35h-.24c0-.24.12-.35.12-.59.12-.95,0-2.13-.24-3.19,0-.12-.12-.24-.24-.35h-.47v-.83c0-.95-.24-2.01-.71-3.19-.12-.12-.24-.24-.35-.24s-.24,0-.35.12c0-.24,0-.47-.12-.71-.12-.95-.47-2.01-1.06-3.07-.12-.12-.24-.24-.35-.24s-.24,0-.35.12c0-.24-.12-.47-.12-.71-.12-1.18-.59-2.25-1.3-3.19-.12-.12-.24-.24-.35-.24s-.24.12-.35.24h0c-.12-.24-.24-.59-.24-.83-.35-.95-1.06-1.77-1.89-2.72-.12-.12-.24-.12-.47-.12-.12.12-.24.12-.24.24-.12-.24-.24-.59-.47-.83-.47-.83-1.3-1.65-2.13-2.36-.12-.12-.24-.12-.47-.12-.12,0-.24.12-.24.24-.59-.83-1.42-1.42-2.36-1.77h.35c1.3.12,2.25-.24,2.25-.24.35-.12.47-.35.47-.71s-.35-.59-.59-.59c-1.42-.12-1.89-.35-2.6-.71-.12,0-.12-.12-.24-.12l3.07-.47c.35,0,.59-.35.59-.71s-.24-.59-.59-.71l-2.95-.12c.35-.12.59-.24.95-.24,1.3-.47,2.01-1.06,2.01-1.06.24-.24.35-.59.12-.83s-.35-.59-.71-.47c-1.3.47-1.89.47-2.72.35h-.24l2.72-1.65c.24-.12.35-.59.24-.83-.12-.35-.47-.47-.83-.35l-2.95.71c.24-.24.47-.47.71-.59.95-.95,1.42-1.77,1.42-1.77.12-.24.12-.59-.24-.83-.24-.24-.59-.24-.83,0-1.06.95-1.65,1.06-2.36,1.3h-.24l1.89-2.48c.24-.24.12-.71-.12-.95s-.59-.24-.83-.12l-2.36,1.77c.12-.35.35-.59.47-.95.59-1.18.71-2.13.71-2.25,0-.35-.24-.59-.47-.71-.35-.12-.59.12-.83.35-.59,1.3-1.06,1.65-1.65,2.13l-.12.12.71-3.07c.12-.35-.12-.71-.35-.83-.35-.12-.71,0-.83.24l-1.54,2.6c0-.35.12-.71.12-1.06.12-1.3-.24-2.25-.24-2.25-.12-.35-.35-.47-.71-.47s-.59.35-.59.59c0,1.42-.35,1.89-.71,2.6q0,.12-.12.12l-.47-3.07c0-.35-.35-.59-.71-.59s-.59.24-.71.59l-.35,2.95c-.12-.35-.24-.59-.24-.95-.47-1.3-1.06-2.01-1.06-2.01-.24-.24-.59-.35-.83-.12s-.35.47-.24.83c.47,1.3.35,1.89.35,2.72v.24l-1.65-2.72c-.12-.24-.59-.35-.83-.24-.35.12-.47.47-.35.83l.71,2.84c-.24-.24-.47-.47-.59-.71-.83-.95-1.65-1.42-1.77-1.42-.24-.12-.59-.12-.83.12-.24.24-.24.59,0,.83.95,1.06,1.18,1.65,1.3,2.36v.24l-2.48-1.54c-.24-.24-.59-.12-.83.12-.24.24-.24.59,0,.95l1.77,2.36c-.24-.12-.59-.35-.83-.47-1.18-.59-2.13-.71-2.25-.71-.35,0-.59.12-.71.47s.12.59.35.83c1.3.59,1.65,1.06,2.13,1.65l.12.12-3.07-.71c-.35-.12-.71.12-.83.35-.12.35,0,.71.24.83l2.6,1.54c-.35,0-.71-.12-.95-.12-1.3-.12-2.25.24-2.25.24-.35.12-.47.35-.47.71s.35.59.59.59c1.42,0,1.89.35,2.6.71,0,0,.12,0,.24.12l-3.07.47c-.35,0-.59.35-.59.71s.24.59.59.71l2.95.47c-.35.12-.71.24-.95.35-1.18.47-2.01,1.06-2.01,1.06-.24.24-.35.59-.12.83s.47.47.83.24c.71-.24,1.18-.35,1.65-.35-.83.71-1.18,1.18-1.42,1.42-.12.12-.24.35-.35.59,0-.12-.12-.12-.24-.24-.12,0-.35,0-.47.12-.95.71-1.65,1.54-2.25,2.36-.12.24-.35.47-.47.83-.12-.35-.24-.35-.35-.35s-.35,0-.35.12c-.83.83-1.42,1.77-1.77,2.72-.12.24-.24.47-.24.83-.12-.12-.24-.12-.35-.12s-.24,0-.35.24c-.71.95-1.18,1.89-1.54,2.84-.12.24-.12.59-.24.83h0c-.12-.35-.24-.35-.35-.35s-.24.12-.35.24c-.59,1.06-.95,2.13-1.06,3.07,0,.24,0,.47-.12.83h0c-.12-.12-.24-.12-.35-.12s-.24.12-.35.24c-.35,1.06-.59,2.13-.59,3.19v.71c-.12-.12-.24-.12-.35,0s-.35.12-.35.24c-.24,1.18-.35,2.25-.24,3.19,0,.24,0,.35.12.59h-.24c-.12,0-.24.24-.24.35-.24,1.18-.24,2.25-.12,3.19,0,.24.12.47.12.71h-.24c-.12.12-.24.24-.24.35-.12,1.18-.12,2.25.12,3.19,0,.24.12.47.24.59H.24c-.12.12-.24.24-.24.35,0,1.18.12,2.25.47,3.19.12.24.24.59.35.83h-.12c-.12,0-.35,0-.35.12s-.24.71-.24.83c.24,1.18.47,2.25.95,3.07.12.24.24.35.35.47q-.12,0-.24.12c-.12.12-.12.24-.12.35.24,1.18.71,2.13,1.18,2.95.12.24.24.35.47.59-.12,0-.24.12-.35.24s-.12.24,0,.47c.35,1.06.95,2.13,1.54,2.84.12.24.24.35.47.47-.12,0-.24.12-.24.24-.12.12-.12.24,0,.47.59,1.06,1.18,2.01,1.89,2.6.12.12.35.24.47.47-.12,0-.24.12-.24.24v.47c.59.95,1.42,1.77,2.13,2.48.24.24.47.35.83.47h-.12c-.12,0-.24.24-.24.35s0,.35.12.47c.83.83,1.65,1.54,2.48,2.01.71.35,1.42.71,2.13.83.59.12,1.18.12,1.65,0,1.54,1.06,3.07,2.01,4.73,2.6,1.3.59,2.72.95,4.14,1.3.24,0,.35.12.59.12l.47.12c.35.12.59.12.83.24v.95c-.47.47-2.25,2.01-4.61,2.25h-.12l.12.12c.12.12.35.47.71.83h0c2.13-.47,3.78-1.65,4.49-2.25,0,.12.12.12.24.24-.12.59-.83,2.13-3.31,2.84h-.83l.24.12c.47.24.95.35,1.54.35h0c1.89-.83,2.6-2.13,2.84-2.95h.71c.24.71.95,2.01,2.84,2.95h0c.59-.12,1.06-.24,1.54-.35l.24-.12-.24-.12c-2.48-.71-3.19-2.13-3.31-2.72q.12-.12.24-.24c.71.71,2.36,1.89,4.49,2.25h0c.35-.35.59-.71.71-.83l.12-.12h-.12c-2.36-.24-4.02-1.65-4.61-2.25v-.95c.24,0,.47-.12.71-.24l.59-.12c.59-.12,1.3-.24,1.89-.35,1.42-.35,2.72-.95,4.02-1.54,1.89-.95,3.07-1.89,3.43-2.13.47.12,1.06.12,1.65,0,.71-.12,1.42-.35,2.13-.83.83-.47,1.65-1.18,2.48-2.01.12-.12.12-.24.12-.47s-.12-.24-.24-.35h-.12c.24-.12.47-.35.83-.47.83-.59,1.54-1.42,2.13-2.48.12-.12.12-.24,0-.47,0-.12-.12-.24-.24-.24.12-.12.35-.24.47-.47.71-.71,1.42-1.54,1.89-2.6.12-.12.12-.24,0-.47-.12-.12-.24-.24-.35-.24.24-.24.35-.35.47-.59.59-.83,1.18-1.77,1.54-2.84v-.35c0-.12-.24-.24-.35-.24h0c.12-.24.24-.35.47-.59.59-.83.95-1.77,1.3-2.95,0-.12,0-.35-.12-.47-.12-.12-.24-.12-.35-.12.12-.24.24-.47.35-.71.12-.71.47-1.77.47-2.95m-.47-3.78h0s.12.12,0,0c0,.83-.24,1.54-.47,2.25s-.59,1.3-.95,1.77c-.47.59-.95.83-1.18.95h0c-.71-.95-.95-2.01-.95-3.31,0-.35,0-.83.12-1.18h0c.59.71.95,1.65.95,1.65,0,.12.12.24.24.24h0c.12,0,.24-.12.24-.24.71-1.06,1.54-1.65,2.01-2.13h0m0-4.25h0s0,.12,0,0c.12.83,0,1.65-.12,2.25-.24.71-.47,1.3-.83,1.77-.47.59-.95.95-1.06,1.06h0c-1.18-1.3-1.3-3.31-1.18-4.25h0c.59.71,1.06,1.42,1.06,1.54.12.12.24.24.35.24s.24-.12.24-.24c.35-1.18.95-1.89,1.54-2.36m-.47-4.25h0c.12.83.12,1.65.12,2.25-.12.71-.35,1.3-.59,1.89-.35.71-.83,1.06-.95,1.18h0c-1.18-.95-1.54-2.95-1.54-4.14h0c.71.59,1.18,1.42,1.18,1.42.12.12.24.24.35.12s.24-.12.24-.24c.12-1.18.71-2.01,1.18-2.48m-.71-4.14h0q.12,0,0,0c.24.83.24,1.65.24,2.25-.12.71-.24,1.42-.47,1.89-.35.71-.71,1.06-.95,1.18h0c-.95-.83-1.42-2.01-1.65-2.84-.12-.35-.12-.83-.24-1.18h0c.71.59,1.3,1.3,1.3,1.42.12.12.24.12.35.12s.24-.12.24-.24c.24-1.18.83-2.01,1.18-2.6m-22.1,22.34c0,.12.12.24.24.24,1.42.71,2.6,2.13,2.95,2.72h0c0,.12-.12.24-.24.35-.24.24-.59.35-.95.35h0c-.12-.35-.35-.71-.83-1.18-.47-.59-1.54-1.3-1.54-1.3-.24-.12-.59-.12-.71.12s-.12.59.12.71c.24.24.95.71,1.3,1.18.47.47.59.83.59.95h0c0,.12-.12.24-.24.35-.24.24-.47.35-.83.24h0c-.12-.35-.47-.95-1.06-1.65-.24-.24-.47-.24-.71,0-.12.12-.12.24-.12.35s0,.24.12.35c.47.47.71.95.83,1.3h0c-.12.12-.24.12-.35.24-.35.12-.71.12-1.06.12h0c.24-.24.24-.47.24-.71,0-.35,0-.83-.47-1.18-.24-.24-.71-.47-1.42-.35h0c0-.35-.24-.71-.59-.95-.47-.59-1.06-.71-1.65-.47h0c-.12-.24-.35-.59-.83-.95-.47-.24-.95-.24-1.54-.12h0c-.47-.35-1.06-.47-1.3-.47-.71-.12-1.77.24-2.36.95h0c-3.43,1.77-7.68,3.78-9.45,4.61h0c-.95-1.77-1.77-3.66-2.36-5.67-.24-.59-.35-1.18-.47-1.65h0c4.96-.59,8.86-1.18,11.82-1.77,2.95-.59,4.96-1.18,5.91-1.89h0c1.18-.83,2.01-1.18,3.07-1.18.35,0,.71.12.95.12h0c-.24.12-.59.24-.83.35-.47.35-.71.59-.95.71-.24.24-.47.35-.83.59-.24.12-.47.24-.83.47-.71.35-1.18.59-1.42,1.06h0c-.24.47-.12.95.24,1.42.47.71,1.3.59,2.01.59s1.65-.35,2.36-.71c.24-.12.47-.24.59-.35.24-.24.59-.35.71-.35h0c.59-.12,1.3-.12,2.13.24.71.24,1.42.71,2.13,1.18,1.54,1.06,2.72,2.36,3.07,2.84h0c0,.24-.12.47-.24.59-.24.24-.47.24-.83.24h0c-.47-.59-1.77-2.25-3.31-2.95-.24-.12-.59,0-.71.24-.35-.12-.35,0-.35.12m-3.78,5.32h0c-.24.24-.95.59-1.42.59h-.24c-.12,0-.24-.12-.47-.24h0c.24-.59.83-.95,1.42-1.3.71-.35,1.06-.24,1.06-.12.24.24.24.35.24.35,0,.24-.35.59-.59.71h0Zm-5.79-2.95c.71-.71,1.3-.95,1.77-.71.12.12.35.24.35.35v.24h0c-.12.12-.24.12-.35.24-.71.47-1.18,1.06-1.42,1.65h0c-.12,0-.24,0-.35-.12-.59-.24-.59-.59-.71-.71.12-.24.24-.47.71-.95m-.71-.71c-.35.35-.71.71-.83,1.3h-.24c-.35-.12-.59-.24-.71-.35,0-.12-.12-.24.12-.59.35-.47,1.18-.83,1.77-.83h0c.12,0,.24,0,.35.12h0c-.24.12-.35.24-.47.35m3.07,1.65c.95-.71,1.42-.83,1.89-.47.12.12.24.24.24.35,0,.24-.24.47-.47.59-.59.35-.95.83-1.18,1.42h-.59c-.24,0-.47,0-.71-.12-.12-.12-.24-.12-.24-.35,0-.59.71-1.06,1.06-1.42m10.28-45.03h0c.47-.24.83-.24,1.3-.35,1.18-.12,2.25.35,2.95,1.18h0c-.24.12-.71.24-1.18.24h-.12c-.95,0-2.01-.35-2.95-1.06m1.42,1.65h-15.96c2.6-1.3,5.2-1.89,8.04-1.89s5.44.71,7.92,1.89m2.01-3.19c-.35.12-.95.35-1.54.47-.35.12-.83.12-1.18.12-.83,0-1.65-.24-2.25-.59h0c.24-.12.71-.35,1.3-.47s1.18-.12,1.89,0c.59-.12,1.18,0,1.77.47q0-.12,0,0h0m-3.78-1.42c-.35.24-1.06.47-2.13.59-.12,0-.24.12-.24.24s0,.24.12.35c0,0,.83.59,1.42,1.3h0c-.95,0-2.84-.35-4.14-1.89h0c.24-.24.59-.47,1.18-.71.83-.35,2.25-.35,3.78.12h0m-4.37-.71c-.35.24-.95.71-2.01.95-.12,0-.24.12-.24.35s.12.24.24.35c0,0,.95.35,1.54.95h-.83c-.95,0-2.36-.12-3.55-1.06h0c.12-.24.47-.59.95-.95.95-.47,2.25-.71,3.9-.59-.12,0,0,0,0,0h0m-4.61.12c-.24.35-.83.83-1.77,1.42-.12,0-.24.24-.24.35s.12.24.24.24c0,0,.95.12,1.77.59h0c-.35.12-.83.24-1.18.24-.35.12-.83.12-1.18.12-.83,0-1.54-.12-2.13-.47h0c.12-.24.35-.71.71-1.06.95-.71,2.13-1.3,3.78-1.42q0-.12,0,0t0,0m-4.14.71h0c-.24.47-.59,1.18-1.54,2.01-.12.12-.12.24-.12.35s.24.24.35.24h0c.12,0,.47,0,.95.12.35,0,.71.12.95.24h0c-.35.24-.71.35-1.18.47-.71.24-1.42.35-2.13.35-.47,0-.83,0-1.3-.12h0c.12-.83.83-2.6,4.02-3.66-.12,0,0,0,0,0h0m16.78,5.67c.83.59,1.65,1.18,2.48,1.89H15.36c.83-.71,1.65-1.3,2.48-1.89h19.86Zm3.66,2.95c.59.59,1.18,1.18,1.77,1.89h-12.17c-1.65-1.18-3.31-1.06-3.55-1.06s-1.89.12-3.31,1.06h-11.58c.59-.71,1.18-1.3,1.77-1.89h27.06Zm-17.49,14.06c-1.06-.12-1.89.24-2.95.59h0v-.24c.59-2.84,1.65-4.73,2.48-5.91.59-.83,1.18-1.42,1.42-1.65.12,0,.24-.12.24-.24.24-.24.24-.59.12-.83s-.59-.35-.83-.12l-.24.24c-.47.35-.83.35-1.18.24-.24-.12-.35-.47-.24-.83.12-.59.83-1.42,1.06-1.77h0c1.42-1.65,3.66-1.65,3.66-1.65,0,0,.71,0,1.65.24,1.18.35,2.13,1.18,2.72,2.48.95,1.77,1.54,3.43,2.01,5.32h0c-1.3-.47-2.25-1.3-2.36-1.3-.24-.24-.59-.24-.83.12-.24.24-.24.59.12.83,0,0,1.54,1.3,3.43,1.65h0c.12.71.24,1.3.35,2.13h0c-.59-.35-1.3-.47-1.89-.71-.35-.12-.71-.24-1.06-.35-1.3-.47-2.36-1.42-2.36-1.42-.24-.24-.59-.12-.83.12-.24.24-.12.59.12.83,0,0,1.18.95,2.6,1.54.35.12.71.24,1.18.35,1.54.47,2.36.83,2.36,1.65h0c0,.12-.12.24-.24.35-.47.47-1.42.59-1.89.59h-1.65c-.24,0-1.89-.12-3.19-.95-1.54-.71-2.72-1.18-3.78-1.3m3.07,2.6h-4.73c-.47,0-.83-.12-1.06-.35,0-.12-.12-.12-.12-.24h0c2.01-1.06,3.07-1.18,5.91.59h0m1.54,4.25h21.86c.12.71.12,1.42.12,2.01h-21.98v-2.01Zm0-1.06v-1.89h21.51c.12.59.24,1.3.24,1.89h-21.75Zm6.85-3.07c.24-.24.35-.47.47-.83v-.12c.12-.24.12-.59.12-.95h13.47c.12.59.24,1.3.35,1.89h-14.42Zm.47-2.95c-.12-.59-.24-1.18-.35-1.89h13.12c.12.12.12.35.12.47.12.47.24.95.47,1.42,0,0-13.36,0-13.36,0Zm-.59-2.95c-.12-.59-.24-1.18-.47-1.89h12.65c.24.59.47,1.3.83,1.89h-13Zm-.83-2.95c-.24-.59-.47-1.3-.71-1.89h12.17c.35.59.71,1.3.95,1.89.12,0-12.41,0-12.41,0Zm-1.18-2.95c-.12-.24-.24-.47-.35-.71-.24-.47-.47-.83-.71-1.18h11.82c.47.59.95,1.18,1.3,1.89h-12.06Zm-10.4-1.89c-.24.24-.95,1.06-1.18,1.89h-11.23c.35-.59.83-1.3,1.3-1.89h11.11Zm-1.3,2.95c.12.59.35,1.06.83,1.3.12,0,.24.12.35.12h0l-.35.35h-13.59c.35-.59.59-1.3.95-1.89l11.82.12h0Zm.24,2.95c-.35.59-.59,1.18-.95,1.89H7.45c.24-.59.47-1.3.83-1.89h13.47Zm-1.42,2.95c-.24.59-.35,1.18-.47,1.89H6.5c.12-.47.24-.95.47-1.42,0-.12.12-.35.12-.47,0,0,13.24,0,13.24,0Zm-.71,2.95v.95c0,.35.24.71.35,1.06H5.79c.12-.59.24-1.3.35-1.89h13.47v-.12Zm7.45,3.07v1.89H5.32c.12-.59.12-1.3.24-1.89h21.51Zm0,2.95v2.01H5.08c0-.71.12-1.42.12-2.01h21.86Zm0,3.19v4.37h-.12c-1.18,0-2.25.47-3.31,1.3-1.77,1.18-7.56,2.36-17.37,3.43h0c-.71-2.95-1.06-5.91-1.06-9.1v-.12l21.86.12h0Zm7.09,9.69c-1.06-.71-3.07-2.01-4.96-1.42-.35.12-.71.35-1.06.59-.24.12-.35.24-.59.35-.59.35-1.42.59-1.89.59-.59,0-.95,0-1.06-.24q-.12-.24-.12-.35h0c.12-.12.59-.35.83-.47.35-.12.59-.35.95-.47.35-.24.59-.47.83-.59.24-.24.47-.35.95-.71.59-.47,1.3-.47,2.25-.47h.83c1.06,0,2.01.24,3.43.83.35.12.83.35,1.42.47h0s1.89.59,4.61,1.18c2.25.59,5.67,1.18,8.75,1.42h0c-.12.59-.24,1.06-.47,1.54-.71,2.01-1.42,4.02-2.48,5.79h0c-1.54-.59-5.32-2.25-7.92-4.14-.47-.35-.83-.71-1.06-.95h0c0-.12-.12-.12-.12-.12-.47-.59-1.65-1.89-3.07-2.84m2.01-2.95c-.47-.24-.95-.35-1.42-.47-1.42-.59-2.6-.95-3.78-.83h-.24c-.71-.35-1.3-.59-2.25-.71h0v-4.61h21.98v.12c0,3.19-.35,6.26-1.06,9.22h0c-5.91-.47-12.88-2.72-13.24-2.72m16.07-21.27h0c.35.83.47,1.54.47,2.25s-.12,1.42-.24,2.01c-.24.71-.59,1.18-.71,1.3h0c-.95-.59-1.54-1.42-2.01-2.6-.12-.35-.24-.71-.35-1.18h0c.83.47,1.42,1.18,1.42,1.18,0,.12.12.12.24.12s.24-.12.24-.24c.12-1.3.59-2.25.95-2.84m-2.48-.83c.12,0,.24-.24.24-.35,0-1.3.24-2.25.59-2.72h0c.35.71.59,1.42.59,2.13s.12,1.42-.12,2.01c-.12.71-.47,1.18-.59,1.42h0c-.95-.47-1.77-1.3-2.25-2.36-.24-.35-.35-.71-.47-1.06h0c.83.35,1.54,1.06,1.54,1.06.12-.12.24,0,.47-.12h0m-1.77-3.66c.12-.12.24-.24.12-.35-.24-1.18,0-2.25.24-2.84h0c.35.71.71,1.42.95,2.13.24.71.24,1.42.24,2.01-.12.71-.35,1.3-.35,1.42h0c-1.06-.35-2.01-1.06-2.6-2.13-.24-.35-.35-.71-.59-1.06h0c.95.24,1.65.95,1.65.95,0,0,.24,0,.35-.12m-2.6-3.31c.12.12.24.12.35,0s.12-.24.12-.35c-.35-1.06-.24-2.13-.24-2.84h0c.47.59.95,1.3,1.18,1.89s.47,1.3.47,1.89c0,.71-.12,1.3-.24,1.54h0c-1.06-.24-2.01-.83-2.84-1.77-.24-.35-.59-.59-.83-1.06h0c1.18.12,2.01.71,2.01.71m-2.72-3.07c.12,0,.24,0,.35-.12.12-.12.12-.24,0-.35-.59-1.06-.71-2.13-.71-2.72h0c.59.59,1.06,1.06,1.42,1.65s.71,1.18.83,1.89c.24.71.12,1.3.12,1.54h-.12c-1.18,0-2.25-.59-2.95-1.18-.35-.24-.71-.59-1.06-.95h0c1.3-.12,2.13.24,2.13.24m-.95-2.72c.24.71.35,1.42.35,1.77h-.24c-1.42,0-3.19-.95-4.02-1.54h0c.95-.12,1.77,0,1.77,0,.12,0,.24,0,.35-.12.12-.12.12-.24,0-.35-.59-.71-.95-1.54-1.06-2.13h0c1.42.24,2.36,1.06,2.84,2.36m-26.95-4.02h0c.24-.12.59-.35.95-.47.83-.24,1.65-.47,2.13-.59.95-.24,1.54-.59,1.54-.59,0,0,.12-.12,0-.12,0,0,0-.12-.12-.12l-4.85-.71h0l4.85-.71s.12,0,.12-.12,0-.12-.12-.12c0,0-.95-.12-1.89-.59l-.71-.35c-.59-.24-1.06-.59-1.89-.71h.95c.95,0,1.77.12,2.13.24.95.12,1.65,0,1.65,0,0,0,.12,0,.12-.12v-.12l-4.14-2.48h0l4.73,1.18s.12,0,.12-.12v-.12s-.83-.47-1.54-1.3c-.24-.24-.35-.47-.59-.59-.35-.47-.71-.95-1.54-1.42h0c.35.12.59.24.95.35.83.35,1.54.83,1.89,1.06.83.47,1.54.71,1.54.71h.12v-.12l-2.95-3.9h0l3.9,2.95h.12v-.12s-.59-.71-.95-1.77c-.12-.24-.24-.59-.24-.83-.24-.59-.35-1.18-.83-1.89h0c.24.24.47.47.71.71.59.71,1.06,1.3,1.3,1.65.59.71,1.18,1.18,1.18,1.18h.12v-.12l-1.18-4.73h0l2.48,4.25s.12.12.12,0l.12-.12s-.24-.95-.24-1.89c0-.35,0-.59.12-.83.12-.59.12-1.18-.12-2.01h0c.12.24.24.59.35.95.24.83.47,1.65.59,2.13.24.95.59,1.54.59,1.54,0,0,.12.12.12,0,0,0,.12,0,.12-.12l.71-4.85h0l1.18,4.61s0,.12.12.12.12,0,.12-.12c0,0,.12-.95.59-1.89.12-.24.24-.47.35-.71.24-.59.59-1.06.71-1.89h0v.95c0,.95-.24,1.77-.24,2.13-.12.95,0,1.65,0,1.65,0,0,0,.12.12.12h.12l2.48-4.25h0l-1.18,4.73s0,.12.12.12h.12s.47-.83,1.18-1.54c.24-.24.47-.35.59-.59.47-.35.95-.71,1.42-1.54h0c-.12.35-.24.59-.35.95-.35.83-.83,1.54-1.06,1.89-.47.83-.71,1.54-.71,1.54v.12h.12l3.9-2.95h0l-2.95,3.9v.12h.12s.71-.59,1.77-.95c.24-.12.59-.24.83-.24.59-.12,1.18-.35,1.89-.83h0c-.24.24-.47.47-.71.71-.71.59-1.3,1.06-1.65,1.3-.83.59-1.18,1.18-1.18,1.18v.12h.12l4.73-1.18h0l-4.14,2.48s-.12.12,0,.12.12.12.12.12c0,0,.95-.24,1.89-.24.35,0,.59,0,.83.12.59.12,1.18.12,2.01-.12h0c-.24.12-.59.24-.95.35-.83.24-1.65.47-2.13.59-.95.24-1.54.59-1.54.59,0,0-.12.12,0,.12s0,.12.12.12l4.85.71h0l-4.85.71s-.12,0-.12.12,0,.12.12.12c0,0,.95.12,1.89.59.24.12.47.24.71.35.59.35,1.06.59,1.89.71h-1.06c-.95,0-1.77-.24-2.13-.24h-.12c-.71-.35-1.54-.47-2.36-.47h0v-.12c0-.12-.12-.24-.24-.24-.95-.35-1.77-.47-2.6-.59h-.47c-.35,0-.71,0-1.06.12h0v-.12h0c0-.12-.12-.12-.24-.24h-.59c-.95-.12-1.77,0-2.48.12-.24,0-.35.12-.59.12h-.24c-.12,0-.24.12-.24.12h0c0-.12,0-.24-.12-.35h0q-.12-.12-.24-.12c-1.18.12-2.25.35-3.07.71-.24.12-.59.24-.83.47h0v-.12h0c0-.12,0-.24-.12-.35h-.24c-1.18.35-2.13.71-2.95,1.3h-1.54c-.95.59-1.54.59-2.36.71m1.89.95h0s0,.12,0,0c0,.71-.12,1.65-.83,2.72-.12.12-.12.24,0,.35s.24.12.35.12c0,0,.95-.12,1.77-.12h0c-.83.59-2.36,1.65-4.02,1.65h-.24c0-.59.24-2.72,2.95-4.73m-5.79,6.15c.12-.59.35-1.18.83-1.77.35-.59.95-1.18,1.54-1.77h0c0,.59-.12,1.65-.59,2.72v.35c.12.12.24.12.35.12,0,0,.83-.24,1.77-.35h0c-.35.35-.71.59-1.06.95-.71.59-1.77,1.18-2.84,1.18h-.12c.12,0,0-.59.12-1.42m-.83-.47h0c.24.71.24,1.65-.12,2.84,0,.12,0,.24.12.35s.24.12.35,0c0,0,.83-.59,1.77-.59h0c-.59.95-2.01,2.48-3.66,2.72h0c-.24-.71-.59-2.72,1.54-5.32m-3.66,5.55c.24-.71.59-1.42.95-2.01h0c.24.59.35,1.65.12,2.84,0,.12,0,.24.12.35s.24,0,.35,0c0,0,.71-.71,1.77-.83h0c-.12.24-.35.71-.71,1.18-.71,1.06-1.65,1.77-2.72,2.01h0c-.12-.24-.35-.71-.35-1.54.12-.71.24-1.3.47-2.01m-2.01,3.78c.12-.71.35-1.42.71-2.13h0c.24.59.59,1.54.59,2.84,0,.12.12.24.24.35s.24,0,.35,0c0,0,.83-.71,1.65-1.06h0c-.12.35-.24.71-.35,1.06-.59,1.06-1.42,1.89-2.48,2.48h0c-.12-.24-.35-.71-.59-1.42-.24-.71-.24-1.42-.12-2.13m-1.06,1.77h0c.47.47.95,1.42.95,2.72,0,.12.12.24.24.24s.24,0,.35-.12c0,0,.59-.71,1.54-1.3h0c0,.35-.12.71-.24,1.06-.35,1.18-1.18,2.13-2.13,2.84h0c-.12-.12-.47-.59-.71-1.3-.24-.59-.35-1.3-.24-2.01-.12-.59,0-1.3.24-2.13m-1.18,4.14h0c.47.47,1.06,1.3,1.3,2.6,0,.12.12.24.24.24s.24,0,.35-.12c0-.12.59-.83,1.3-1.42h0c0,.35-.12.71-.12,1.06-.24,1.18-.83,2.25-1.77,2.95h0c-.24-.24-.59-.59-.95-1.18-.24-.59-.47-1.18-.59-1.89,0-.71.12-1.42.24-2.25m-.59,4.14h0c.47.47,1.06,1.3,1.42,2.48,0,.12.12.24.24.24s.24,0,.35-.24c0,0,.35-.83,1.06-1.42h0c0,.47,0,.83-.12,1.3-.24,1.3-.71,2.25-1.42,2.95h0c-.12-.12-.59-.59-.95-1.18s-.47-1.18-.59-1.89c-.12-.71-.12-1.42,0-2.25m-.35,4.37h0s0-.12,0,0q0-.12,0,0c.12,0,.24.12.35.24.35.35.95,1.18,1.18,2.13,0,.12.24.24.35.24h0c.12,0,.24-.12.35-.24,0,0,.12-.95.95-1.54h0c.12.47.12,1.3,0,2.13-.12.95-.59,1.77-1.18,2.36h0c-.71-.59-2.25-2.01-2.01-5.32m-.24,4.14s.12,0,0,0c.12.12.24.12.35.24.47.35,1.06,1.06,1.42,2.01,0,.12.24.24.35.24h0c.12,0,.24-.12.35-.24,0,0,.35-.95.95-1.65h0c.24.95.35,2.6-.95,4.49h0c-.71-.35-2.25-1.65-2.48-5.08,0,.12,0,0,0,0m.24,4.49h0q.12-.12,0,0c.59.24,1.42.83,2.13,1.89.12.12.24.12.35.12s.24-.12.24-.24h0s.24-1.06.71-1.89h0c.12.35.24.71.35,1.18.24,1.18,0,2.36-.59,3.43h0c-.24-.12-.71-.35-1.3-.83-.47-.47-.95-.95-1.18-1.54s-.47-1.3-.71-2.13m1.06,4.02h0c.12,0,.24,0,.35.12.47.24,1.3.71,1.89,1.54.12.12.24.12.35.12s.24-.12.24-.24c0,0,.12-.95.59-1.77h0c.35.95.95,2.72.12,4.49h0c-.71-.12-2.6-1.06-3.55-4.25m2.36,6.15c-.47-.59-.83-1.18-1.18-2.01h0c.12,0,.24.12.35.12.59.24,1.3.59,2.13,1.42.12.12.24.12.35.12s.24-.12.24-.35c0,0,0-.95.35-1.89h0c.24.35.35.71.47,1.06.47,1.18.47,2.36.24,3.31h0c-.24,0-.83-.12-1.42-.59-.47-.24-1.06-.71-1.54-1.18m.59,1.89h0s.12-.12,0,0c.71,0,1.65.35,2.6,1.18.12.12.24.12.35,0s.24-.24.12-.35c0,0-.12-.95.12-1.89h0c.24.35.47.71.59,1.06.35.83.83,2.01.59,3.31h0c-.24,0-.83-.12-1.54-.35-.59-.24-1.18-.71-1.65-1.18s-.71-1.06-1.18-1.77m3.78,5.32c-.59-.47-1.06-.95-1.54-1.65h0c.59,0,1.65.24,2.72.95.12.12.24.12.35,0s.12-.24.12-.35c0,0-.24-.95-.12-1.77h0c.71.83,1.77,2.48,1.65,4.14h-.12c-.35,0-.83,0-1.42-.24-.47-.35-1.06-.59-1.65-1.06m6.03,4.02h-.59c-.35,0-.59,0-.83-.12-1.18-.24-2.36-.95-3.55-2.13h0c.59-.12,1.65-.12,2.84.35.12,0,.24,0,.35-.12s.12-.24.12-.35c0,0-.35-.83-.47-1.77h0c.95.71,2.25,2.13,2.13,4.14q.12-.12,0,0m8.04,3.43c-.95-.24-1.89-.59-2.84-.95-1.54-.71-3.07-1.54-4.49-2.48h0c0-.59,0-1.18-.24-1.65h0c1.06.95,2.13,1.65,3.19,2.25,1.18.71,2.48,1.3,3.78,1.65h0l.35.12c0,.47.12.95.35,1.3,0-.24-.12-.24-.12-.24Zm2.25-1.06c-.12.47-.12.95.12,1.42v.12h0c-.59-.24-1.06-.47-1.3-.83-.35-.24-.35-.59-.35-.95,0-.24.12-.47.35-.59.35-.24,1.06-.35,1.89-.24h0v.12c-.35.24-.59.59-.71.95m2.72,4.25c-.59,0-1.18-.47-1.18-1.18s.47-1.18,1.18-1.18,1.18.47,1.18,1.18-.59,1.18-1.18,1.18m1.3-2.6h0c-.47-.35-.95-.47-1.42-.47s-.95.24-1.3.47h0c-.24-.35-.59-.83-.47-1.3.35-1.06,1.77-1.06,1.89-1.06h0c.12,0,.47,0,.83.12.59.12.95.47,1.06.95.12.47-.24.95-.59,1.3m2.6-.95c-.24.35-.71.59-1.3.83h0v-.12c.24-.47.24-.95.12-1.42-.12-.35-.35-.71-.83-1.06v-.12c0-.12,0,0,0,0,.59-.12,1.42-.12,1.89.24.24.12.35.35.35.59,0,.47-.12.83-.24,1.06m8.15-3.19h0c-.35.24-1.54,1.18-3.31,2.01-1.3.59-2.6,1.06-3.9,1.42l-.24.12c.24-.35.35-.83.35-1.3l.35-.12h0c1.3-.35,2.6-.95,3.78-1.65,1.18-.59,2.25-1.42,3.19-2.25h0c-.12.71-.24,1.18-.24,1.77m-3.31-.12c-1.18.71-2.48,1.18-3.78,1.65h-.12c-.12-.24-.35-.47-.59-.59-1.18-.83-3.55-.24-4.25,0h0c-.71-.24-3.07-.83-4.25,0-.24.12-.47.35-.59.59l-.24-.12c-1.3-.35-2.48-.95-3.78-1.54-2.72-1.54-5.08-3.66-7.21-6.38-.71-.95-1.42-2.01-2.01-3.07h0c1.42-.59,5.08-2.25,8.27-3.9h0c0,.12,0,.24.12.35.24.59.95.83,1.42.95h.47c.24.47.59.83,1.3,1.06.24.12.47.12.71.12h0c.12.24.24.47.59.71.59.35,1.54.35,2.01.24h0c.24.35.59.59,1.06.59s.83,0,1.3-.12h0v5.55c0,.35.35.71.71.71s.71-.35.71-.71v-5.79h0c.83.12,1.42,0,1.77-.12s.59-.35.71-.47h0c.71.12,1.42-.12,1.89-.59.12-.12.24-.35.35-.47h.12c.95,0,1.42-.35,1.77-.71.12-.12.24-.35.35-.59h0c.59,0,1.06-.24,1.42-.59.12-.12.24-.35.35-.59h0c2.6,2.01,6.62,3.78,8.27,4.49h0c-.59.95-1.18,2.01-1.89,2.84-1.89,2.84-4.37,4.96-6.97,6.5m8.98-2.01h0c-1.54,1.42-2.84,1.89-3.66,2.13-.24.12-.59.12-.83.12h-.59c0-1.06.35-2.13,1.18-3.19.24-.35.59-.59.95-.83h0c-.12.95-.47,1.77-.47,1.77,0,.12,0,.24.12.35.12.12.24.12.35.12,1.3-.59,2.25-.59,2.95-.47h0s0,.12,0,0m2.72-3.43c-.47.71-.95,1.18-1.54,1.65s-1.18.83-1.77.95c-.59.24-1.06.24-1.42.24h-.12c-.12-1.06.24-2.13.95-3.19.24-.35.47-.71.71-.95h0c.12.95-.12,1.77-.12,1.89s0,.24.12.35c.12.12.24.12.35,0,1.18-.83,2.13-.95,2.84-.95q0-.12,0,0h0m2.13-3.66c-.35.71-.83,1.3-1.42,1.77-.47.47-1.06.95-1.65,1.18-.71.35-1.3.35-1.54.35h0c-.24-1.06,0-2.13.59-3.31.24-.35.35-.71.59-1.06h0c.24.95.12,1.89.12,1.89,0,.12.12.24.24.35.12.12.24,0,.35,0,1.06-.83,2.01-1.06,2.72-1.18h0m1.77-4.02h0c-.35.83-.71,1.42-1.18,2.01s-.95.95-1.54,1.3c-.59.35-1.18.47-1.42.59h0c-.35-1.06-.24-2.13.24-3.31.12-.35.24-.71.47-1.06h0c.24.95.35,1.77.35,1.89s.12.24.24.24.24,0,.35-.12h0c.83-.83,1.54-1.3,2.13-1.42.12,0,.24-.12.35-.12h0m1.3-3.9h0c-.24.83-.59,1.42-.95,2.01-.35.59-.83,1.06-1.42,1.42-.59.47-1.18.59-1.42.71h0c-.47-1.18-.35-2.48-.12-3.43.12-.35.24-.83.35-1.18h0c.35.83.47,1.89.47,1.89,0,.12.12.24.24.24s.24,0,.35-.12c.95-.95,1.77-1.42,2.48-1.54q-.12-.12,0,0,0-.12,0,0m.12-2.13c-.35.59-.71,1.18-1.18,1.65s-1.06.71-1.3.83h0c-.59-.95-.71-2.13-.59-3.43,0-.35.12-.83.24-1.18h0c.47.83.71,1.77.71,1.89s.12.24.24.24.24,0,.35-.12c.71-1.06,1.42-1.65,2.01-2.01h0c0,.83-.24,1.54-.47,2.13"/>
  </g>
  <g>
    <path class="cls-1" d="m84.27,77.29l-1.54-4.73c0-.12-.24-.24-.35-.24h-6.5c-.12,0-.35.12-.35.24l-1.54,4.73c0,.12-.24.24-.35.24h-2.36c-.24,0-.47-.24-.35-.47l5.79-17.26c.12-.12.24-.24.35-.24h4.14c.12,0,.35.12.35.24l5.79,17.37c.12.24-.12.47-.35.47h-2.36c-.24,0-.35-.12-.35-.35h0Zm-7.33-7.56h4.25c.24,0,.47-.24.35-.47l-2.13-6.62c-.12-.35-.59-.35-.71,0l-2.13,6.62c-.12.24.12.47.35.47Z"/>
    <path class="cls-1" d="m89.7,64.29h1.89c.24,0,.35.12.35.35l.24,1.42h.12c.35-.59.95-1.06,1.54-1.42.59-.35,1.3-.47,2.13-.47h.71c.24,0,.35.24.35.35v2.13c0,.24-.24.35-.47.35h-.83c-.59,0-1.3.12-1.89.35-.59.24-1.06.59-1.42.95q-.12.12-.12.24v8.51c0,.24-.24.35-.35.35h-2.25c-.24,0-.35-.24-.35-.35v-12.41c0-.24.24-.35.35-.35h0Z"/>
    <path class="cls-1" d="m101.05,83.09c-.59-.12-1.3-.24-1.77-.35-.24,0-.24-.24-.24-.35v-1.77c0-.24.24-.47.47-.35,1.3.35,2.48.47,3.55.47.95,0,1.65-.12,2.25-.35.59-.24.95-.59,1.3-1.06.24-.47.35-1.18.35-2.01v-1.06h-.12c-.35.47-.95.83-1.54,1.06-.59.24-1.3.35-2.01.35-.95,0-1.77-.24-2.6-.71s-1.42-1.18-1.89-2.13-.71-2.25-.71-3.66c0-2.36.59-4.14,1.89-5.32,1.18-1.18,3.07-1.77,5.44-1.77.83,0,1.65,0,2.48.24.71.12,1.42.24,2.01.47.12,0,.24.24.24.35v11.58c0,1.54-.24,2.84-.71,3.78-.47.95-1.3,1.65-2.25,2.13-1.06.47-2.25.71-3.9.71-.83-.12-1.54-.12-2.25-.24h0Zm4.73-8.27c.35-.12.71-.35,1.06-.71.12-.12.12-.24.12-.24v-6.85c0-.24-.12-.35-.35-.35-.47-.12-1.06-.12-1.54-.12-1.3,0-2.25.35-2.84,1.06s-.95,1.77-.95,3.31.24,2.6.83,3.19c.47.59,1.3.95,2.25.95.47,0,.95,0,1.42-.24h0Z"/>
    <path class="cls-1" d="m123.74,71.86h-7.45c-.24,0-.47.24-.35.47.12.71.24,1.18.47,1.65s.71.83,1.3,1.06c.59.24,1.42.35,2.36.35.83,0,1.77-.12,2.84-.35.24-.12.47.12.47.35v1.65c0,.24-.12.35-.35.35-1.18.24-2.36.35-3.43.35-1.65,0-2.84-.24-3.9-.71-1.06-.47-1.77-1.18-2.25-2.25s-.71-2.36-.71-3.9.24-2.72.71-3.78,1.18-1.77,2.01-2.36,1.89-.83,3.19-.83c1.77,0,3.19.59,4.14,1.77s1.42,2.95,1.42,5.2v.47c-.12.35-.24.47-.47.47h0Zm-7.21-4.85c-.35.59-.59,1.42-.71,2.6,0,.24.12.35.35.35h4.49c.24,0,.35-.24.35-.35-.12-1.18-.24-2.01-.71-2.6-.47-.59-1.06-.95-1.89-.95s-1.42.35-1.89.95h0Z"/>
    <path class="cls-1" d="m126.93,64.29h1.89c.24,0,.35.12.35.35l.12,1.06h.12c.47-.47,1.06-.95,1.77-1.18s1.42-.35,2.25-.35c1.42,0,2.48.35,3.31,1.18s1.18,2.13,1.18,3.9v8.15c0,.24-.12.35-.35.35h-2.48c-.24,0-.35-.24-.35-.35v-7.92c0-.95-.24-1.54-.59-1.89-.35-.35-.95-.59-1.65-.59-.59,0-1.06.12-1.65.35-.47.24-.95.47-1.18.95q-.12.12-.12.24v8.86c0,.24-.12.35-.35.35h-2.48c-.24,0-.35-.24-.35-.35v-12.76c.12-.24.35-.35.59-.35h0Z"/>
    <path class="cls-1" d="m149.03,75.52v1.77c0,.24-.12.35-.35.35-.71.12-1.3.24-2.01.24-3.19,0-4.73-1.54-4.73-4.85v-5.91c0-.24-.12-.35-.35-.35h-1.54c-.24,0-.35-.24-.35-.35v-1.77c0-.24.12-.35.35-.35h1.54c.24,0,.35-.12.35-.35l.47-4.14c0-.24.24-.35.35-.35h1.89c.24,0,.35.24.35.35v4.02c0,.24.12.35.35.35h2.95c.24,0,.35.24.35.35v1.77c0,.24-.12.35-.35.35h-2.95c-.24,0-.35.24-.35.35v5.32c0,.71.12,1.18.24,1.54s.47.71.71.83.83.24,1.3.24c.24,0,.59,0,1.06-.12.47.24.71.47.71.71h0Z"/>
    <path class="cls-1" d="m151.4,61.58c-.35-.24-.47-.71-.47-1.3s.12-.95.47-1.3.83-.47,1.54-.47,1.18.12,1.54.47c.35.35.47.71.47,1.3s-.12.95-.47,1.3-.83.47-1.54.47-1.18-.24-1.54-.47Zm-.12,15.6v-12.53c0-.24.12-.35.35-.35h2.48c.24,0,.35.24.35.35v12.53c0,.24-.12.35-.35.35h-2.48c-.24.12-.35-.12-.35-.35Z"/>
    <path class="cls-1" d="m157.54,64.29h1.89c.24,0,.35.12.35.35l.12,1.06h.12c.47-.47,1.06-.95,1.77-1.18s1.42-.35,2.25-.35c1.42,0,2.48.35,3.31,1.18s1.18,2.13,1.18,3.9v8.15c0,.24-.12.35-.35.35h-2.48c-.24,0-.35-.24-.35-.35v-7.92c0-.95-.24-1.54-.59-1.89-.35-.35-.95-.59-1.65-.59-.59,0-1.06.12-1.65.35-.47.24-.95.47-1.18.95q-.12.12-.12.24v8.86c0,.24-.12.35-.35.35h-2.48c-.24,0-.35-.24-.35-.35v-12.76c.12-.24.35-.35.59-.35h0Z"/>
    <path class="cls-1" d="m179.41,64.53c.83.35,1.42.95,1.89,1.65.47.83.59,1.77.59,3.19v7.8c0,.24-.12.35-.35.35h-1.89c-.24,0-.35-.12-.35-.35l-.12-1.06h-.12c-.35.47-.95.95-1.54,1.18s-1.3.35-2.13.35-1.65-.12-2.25-.47-1.06-.71-1.42-1.3-.47-1.18-.47-2.01c0-1.3.47-2.25,1.3-2.84s2.25-1.06,4.02-1.18l2.48-.24v-.59c0-.71-.12-1.18-.35-1.54s-.59-.71-1.06-.83-1.06-.24-1.89-.24c-.59,0-1.18,0-1.77.12-.47.12-.95.12-1.3.24-.24.12-.47-.12-.47-.35v-1.65c0-.24.12-.35.24-.35.47-.12,1.06-.24,1.77-.35s1.42-.12,2.13-.12c1.18.12,2.25.24,3.07.59h0Zm-1.77,10.75c.35-.12.71-.35,1.06-.71.12-.12.12-.24.12-.24v-2.25c0-.24-.24-.35-.47-.35l-1.77.12c-.83.12-1.42.24-1.89.59s-.59.83-.59,1.3.12,1.06.47,1.3c.35.35.83.47,1.54.47.59,0,1.06-.12,1.54-.24h0Z"/>
  </g>
  <g class="cls-2">
    <path class="cls-1" d="m84.03,14.66h3.07v13.71h-2.36v-10.4l-3.78,8.39h-2.25l-3.78-8.15v10.16h-2.36v-13.71h3.19l4.14,9.34,4.14-9.34Z"/>
    <path class="cls-1" d="m89.7,16.31c-.24-.24-.35-.59-.35-.95s.12-.71.35-.95c.24-.24.59-.35,1.06-.35s.83.12,1.06.35.35.59.35.95-.12.71-.35.95c-.24.24-.59.35-1.06.35-.47,0-.83-.12-1.06-.35Zm-.12,12.17v-10.16h2.48v10.16h-2.48Z"/>
    <path class="cls-1" d="m94.43,18.32h2.01l.12,1.06h.12c.35-.35.83-.71,1.3-.83.47-.24,1.06-.35,1.65-.35,1.06,0,1.89.35,2.48.95s.83,1.54.83,2.95v6.5h-2.36v-6.38c0-.71-.12-1.06-.35-1.42-.24-.24-.71-.47-1.18-.47-.35,0-.83.12-1.18.24s-.71.35-.95.71v7.21h-2.48v-10.16s0,0,0,0Z"/>
    <path class="cls-1" d="m105.66,16.31c-.24-.24-.35-.59-.35-.95s.12-.71.35-.95c.24-.24.59-.35,1.06-.35s.83.12,1.06.35c.24.24.35.59.35.95s-.12.71-.35.95c-.24.24-.59.35-1.06.35-.47,0-.83-.12-1.06-.35Zm-.12,12.17v-10.16h2.48v10.16h-2.48Z"/>
  </g>
  <g class="cls-2">
    <path class="cls-1" d="m110.15,28.25v-1.89c.95.24,2.01.47,3.07.47.71,0,1.18-.12,1.54-.35s.47-.47.47-.95c0-.35-.12-.59-.24-.71-.12-.12-.47-.24-.83-.35l-1.54-.24c-.95-.24-1.54-.47-2.13-.95-.35-.47-.59-1.06-.59-1.89,0-.59.12-1.18.47-1.54.35-.47.83-.83,1.42-1.06.71-.24,1.42-.35,2.48-.35.95,0,1.89.12,2.6.35v1.89c-.83-.24-1.54-.35-2.6-.35-1.42,0-2.36.35-2.36,1.18,0,.24.12.47.24.71s.47.35.83.35l1.54.24c.95.24,1.54.47,2.13.95.47.47.59,1.06.59,2.01,0,.59-.12,1.18-.47,1.65-.35.47-.83.83-1.42,1.06s-1.42.35-2.36.35c-.95-.24-2.01-.35-2.84-.59Z"/>
    <path class="cls-1" d="m125.16,26.59v2.01c-.59.12-1.18.24-1.65.24-2.48,0-3.55-1.18-3.55-3.66v-4.73h-1.65v-2.01h1.65l.35-3.66h2.01v3.66h2.84v2.01h-2.84v4.37c0,.47.12.83.24,1.18.12.24.35.47.59.59s.59.24.95.24c.24-.12.59-.24,1.06-.24Z"/>
  </g>
  <g class="cls-2">
    <path class="cls-1" d="m134.73,24.11h-6.26c0,.59.12,1.18.35,1.54s.59.59.95.83c.47.12,1.06.24,1.89.24s1.54-.12,2.6-.35v1.89c-.95.24-2.01.35-2.95.35-1.18,0-2.25-.12-2.95-.47-.71-.35-1.3-.95-1.65-1.65-.35-.71-.59-1.65-.59-3.07,0-1.06.12-2.13.47-2.84s.83-1.3,1.54-1.65c.59-.35,1.42-.59,2.48-.59,1.3,0,2.48.47,3.19,1.3.71.83,1.06,2.25,1.06,3.9v.59s-.12,0-.12,0Zm-5.79-3.66c-.35.47-.47,1.18-.47,2.25h4.02c0-1.06-.24-1.89-.47-2.25s-.83-.59-1.42-.59c-.71,0-1.3.24-1.65.59Z"/>
  </g>
  <g class="cls-2">
    <path class="cls-1" d="m136.51,18.32h2.01l.24,1.3h.12c.24-.47.71-.83,1.18-1.06.47-.24.95-.35,1.54-.35.24,0,.47,0,.83.12v2.25c-.24,0-.59-.12-.95-.12-.47,0-.95.12-1.42.24s-.83.47-1.06.83v6.85h-2.48v-10.05h0Z"/>
  </g>
  <g class="cls-2">
    <path class="cls-1" d="m143.95,16.31c-.24-.24-.35-.59-.35-.95s.12-.71.35-.95.59-.35,1.06-.35.83.12,1.06.35.35.59.35.95-.12.71-.35.95c-.24.24-.59.35-1.06.35-.47,0-.71-.12-1.06-.35Zm0,12.17v-10.16h2.48v10.16h-2.48Z"/>
    <path class="cls-1" d="m149.51,27.42c-.83-.83-1.18-2.25-1.18-3.9s.35-3.07,1.18-3.9c.83-.83,2.01-1.3,3.55-1.3s2.72.47,3.43,1.3c.83.83,1.18,2.25,1.18,3.9,0,1.18-.24,2.13-.59,2.95-.35.71-.95,1.3-1.54,1.65-.71.35-1.54.59-2.6.59-1.42-.12-2.6-.47-3.43-1.3Zm5.2-1.3c.35-.47.59-1.3.59-2.6s-.24-2.13-.59-2.6c-.35-.47-.95-.71-1.65-.71s-1.3.24-1.65.71c-.35.47-.59,1.3-.59,2.6,0,.83.12,1.42.24,2.01.12.47.47.83.71,1.06.35.24.71.35,1.18.35.71-.12,1.42-.35,1.77-.83Z"/>
    <path class="cls-1" d="m165.82,28.13c-.59-.35-1.06-.83-1.42-1.54-.35-.71-.47-1.65-.47-2.84,0-1.89.47-3.19,1.3-4.02.83-.95,2.25-1.3,4.02-1.3.35,0,.83,0,1.3.12v-4.73h2.48v15.01h-2.13l-.12-1.06h-.24c-.24.35-.71.71-1.06.83-.47.24-.95.35-1.54.35-.83-.35-1.54-.47-2.13-.83Zm3.78-1.65c.35-.12.59-.35.83-.59v-5.55c-.35-.12-.83-.12-1.3-.12-.95,0-1.65.24-2.25.71-.47.47-.71,1.3-.71,2.6,0,1.18.24,2.01.59,2.48.35.47.95.71,1.65.71.47,0,.83-.12,1.18-.24Z"/>
    <path class="cls-1" d="m183.54,24.11h-6.26c0,.59.12,1.18.35,1.54s.59.59.95.83c.47.12,1.06.24,1.89.24.71,0,1.54-.12,2.6-.35v1.89c-.95.24-2.01.35-2.95.35-1.18,0-2.25-.12-2.95-.47-.71-.35-1.3-.95-1.65-1.65-.35-.71-.59-1.65-.59-3.07,0-1.06.12-2.13.47-2.84s.83-1.3,1.54-1.65c.59-.35,1.42-.59,2.48-.59,1.3,0,2.48.47,3.19,1.3.71.83,1.06,2.25,1.06,3.9v.59s-.12,0-.12,0Zm-5.79-3.66c-.35.47-.47,1.18-.47,2.25h4.02c0-1.06-.24-1.89-.47-2.25s-.83-.59-1.42-.59c-.71,0-1.3.24-1.65.59Z"/>
  </g>
  <g>
    <path class="cls-1" d="m75.99,50.11h-1.06c-.35,0-.71,0-1.06-.12-.35,0-.71-.12-1.06-.12v-13.71c.35-.12.83-.12,1.18-.24.35-.12.83-.12,1.3-.12h1.3c2.25,0,4.02.59,5.2,1.77s1.65,2.95,1.65,5.44c0,1.65-.24,3.07-.83,4.14s-1.3,1.77-2.48,2.36c-1.06.35-2.48.59-4.14.59Zm.83-2.36c.83,0,1.42-.12,2.01-.47.59-.35.95-.83,1.18-1.54s.47-1.65.47-2.84-.12-2.13-.47-2.84c-.24-.71-.71-1.18-1.18-1.54-.59-.35-1.18-.47-2.01-.47h-.59c-.24,0-.47,0-.59.12v9.45h.71c.12.12.24.12.47.12Z"/>
    <path class="cls-1" d="m90.41,50.11c-1.18,0-2.13-.24-2.84-.59s-1.3-.95-1.65-1.77-.47-1.89-.47-3.07.12-2.13.47-2.95.83-1.42,1.42-1.77,1.42-.59,2.36-.59c.83,0,1.54.24,2.13.59s1.06.95,1.3,1.77.47,1.77.47,2.95v.83h-6.15v-1.65h4.02l-.35.12c0-.71,0-1.3-.12-1.77s-.24-.71-.47-.83-.47-.24-.71-.24c-.35,0-.59.12-.71.24-.24.12-.35.47-.47.83s-.12.95-.12,1.77v1.18c0,.71.12,1.18.24,1.54s.47.71.83.83c.35.12.83.24,1.54.24.35,0,.71,0,1.18-.12s.83-.12,1.18-.24v2.25c-.47.12-.95.24-1.42.24s-1.3.24-1.65.24Z"/>
    <path class="cls-1" d="m98.21,50.11c-.47,0-.95,0-1.42-.12s-.95-.12-1.3-.35v-2.25c.47.12.83.24,1.3.35s.95.12,1.42.12c.59,0,.95-.12,1.18-.24.24-.24.35-.47.35-.83,0-.24-.12-.47-.24-.59s-.35-.24-.59-.35l-1.3-.35c-.83-.24-1.42-.59-1.77-1.06s-.59-1.18-.59-1.89c0-.95.35-1.77,1.06-2.36s1.77-.95,3.19-.95c.47,0,.83,0,1.18.12.35,0,.71.12,1.06.24v2.25c-.35-.12-.71-.12-1.06-.24-.35,0-.71-.12-1.06-.12-.47,0-.83,0-1.06.12-.24.12-.47.24-.59.35s-.12.35-.12.47c0,.24.12.47.24.59s.35.24.59.35l1.3.35c.83.24,1.42.47,1.77.95.35.47.59,1.06.59,1.89,0,1.06-.35,1.89-1.06,2.48s-1.77,1.06-3.07,1.06Z"/>
    <path class="cls-1" d="m106.84,50.11c-.83,0-1.54-.24-2.13-.83s-.83-1.3-.83-2.13c0-.95.35-1.77.95-2.36s1.65-.83,2.95-.95l1.65-.12.35,1.65-1.77.12c-.47,0-.83.12-1.06.35-.24.24-.35.59-.35.95,0,.47.12.71.35.95.24.24.47.35.83.35.24,0,.47,0,.71-.12s.47-.24.59-.47v-4.02c0-.47-.12-.83-.24-1.06s-.35-.47-.59-.59c-.35-.12-.71-.12-1.18-.12-.35,0-.71,0-1.18.12s-.83.12-1.3.24v-2.25c.47-.12.95-.24,1.42-.24.59-.12,1.06-.12,1.54-.12.95,0,1.77.12,2.36.35s1.06.71,1.42,1.3c.35.59.47,1.42.47,2.36v6.38h-2.25l-.24-1.06h-.12c-.24.47-.59.83-.95.95s-.95.35-1.42.35Z"/>
    <path class="cls-1" d="m114.4,49.87v-10.4h2.36l.24,1.42h.12c.24-.59.59-.95,1.06-1.18s.95-.35,1.42-.35h.71v2.6h-.95c-.24,0-.59,0-.83.12s-.47.24-.71.35c-.24.12-.35.35-.59.59v6.85h-2.84Z"/>
    <path class="cls-1" d="m122.09,49.87v-10.4h2.36l.24,1.42h.12c.24-.59.59-.95,1.06-1.18s.95-.35,1.42-.35h.71v2.6h-.95c-.24,0-.59,0-.83.12s-.47.24-.71.35c-.24.12-.35.35-.59.59v6.85h-2.84Z"/>
    <path class="cls-1" d="m133.79,50.11c-.95,0-1.77-.24-2.36-.59-.71-.35-1.18-.95-1.54-1.77s-.47-1.77-.47-3.07.12-2.25.47-3.07c.35-.83.83-1.42,1.54-1.77s1.42-.59,2.36-.59,1.65.24,2.36.59,1.18.95,1.54,1.77.47,1.77.47,3.07-.12,2.25-.47,3.07c-.35.83-.83,1.42-1.54,1.77s-1.42.59-2.36.59Zm0-2.13c.35,0,.59-.12.83-.24.24-.12.35-.47.47-.95.12-.47.24-1.18.24-2.01,0-.95-.12-1.65-.24-2.13s-.24-.83-.47-.95-.47-.24-.83-.24-.59.12-.83.24c-.24.12-.35.47-.47.95-.12.47-.24,1.18-.24,2.01s.12,1.54.24,2.01c.12.47.24.83.47.95.24.35.47.35.83.35Z"/>
    <path class="cls-1" d="m140.52,49.87v-15.25h2.84v15.25s-2.84,0-2.84,0Z"/>
    <path class="cls-1" d="m145.96,49.87v-15.25h2.84v15.25s-2.84,0-2.84,0Z"/>
    <path class="cls-1" d="m155.42,50.11c-.95,0-1.77-.24-2.36-.59s-1.18-.95-1.54-1.77-.47-1.77-.47-3.07.12-2.25.47-3.07c.35-.83.83-1.42,1.54-1.77s1.42-.59,2.36-.59,1.65.24,2.36.59,1.18.95,1.54,1.77.47,1.77.47,3.07-.12,2.25-.47,3.07c-.35.83-.83,1.42-1.54,1.77-.59.35-1.42.59-2.36.59Zm0-2.13c.35,0,.59-.12.83-.24.24-.12.35-.47.47-.95s.24-1.18.24-2.01c0-.95-.12-1.65-.24-2.13s-.35-.83-.47-.95c-.24-.12-.47-.24-.83-.24s-.59.12-.83.24c-.24.12-.35.47-.47.95-.12.47-.24,1.18-.24,2.01s.12,1.54.24,2.01c.12.47.24.83.47.95s.59.35.83.35Z"/>
    <path class="cls-1" d="m170.19,50.11c-.47,0-1.06,0-1.65-.12s-1.18-.24-1.65-.35v-2.36c.35.12.71.24,1.06.24s.71.12,1.18.24c.35,0,.71.12,1.18.12.83,0,1.42-.12,1.77-.47s.59-.71.59-1.18-.12-.83-.35-1.06-.83-.47-1.54-.71l-.95-.35c-.95-.35-1.65-.83-2.25-1.42s-.95-1.54-.95-2.6c0-1.3.47-2.36,1.3-3.07.95-.71,2.25-1.18,4.02-1.18.59,0,1.06,0,1.54.12.47.12.95.12,1.3.24v2.36c-.35-.12-.83-.24-1.3-.24s-.95-.12-1.3-.12c-.71,0-1.18.12-1.65.24-.35.12-.71.35-.83.59-.12.24-.24.59-.24.83,0,.35.12.71.35.95s.71.47,1.42.71l.95.35c.71.24,1.3.47,1.77.83s.95.83,1.18,1.3.35,1.18.35,1.89c0,.83-.24,1.65-.59,2.25s-.95,1.18-1.77,1.42c-.95.35-1.77.59-2.95.59Z"/>
    <path class="cls-1" d="m181.42,50.11c-.95,0-1.77-.24-2.36-.59s-1.18-.95-1.54-1.77-.47-1.77-.47-3.07.12-2.25.47-3.07c.35-.83.83-1.42,1.54-1.77s1.42-.59,2.36-.59,1.65.24,2.36.59,1.18.95,1.54,1.77.47,1.77.47,3.07-.12,2.25-.47,3.07c-.35.83-.83,1.42-1.54,1.77-.59.35-1.42.59-2.36.59Zm0-2.13c.35,0,.59-.12.83-.24.24-.12.35-.47.47-.95s.24-1.18.24-2.01c0-.95-.12-1.65-.24-2.13s-.35-.83-.47-.95c-.24-.12-.47-.24-.83-.24s-.59.12-.83.24c-.24.12-.35.47-.47.95-.12.47-.24,1.18-.24,2.01s.12,1.54.24,2.01c.12.47.24.83.47.95s.59.35.83.35Z"/>
    <path class="cls-1" d="m192.41,50.11c-.95,0-1.89-.24-2.48-.59-.71-.35-1.18-.95-1.54-1.77s-.59-1.77-.59-3.07.24-2.36.59-3.07c.35-.83.95-1.3,1.77-1.65s1.65-.59,2.72-.59h.95c.35,0,.59.12.95.12v2.25c-.24,0-.47-.12-.71-.12h-.71c-.59,0-1.06.12-1.54.24-.35.24-.71.47-.83.95-.24.47-.24,1.06-.24,1.77,0,.83.12,1.42.24,1.89.12.47.47.71.83.95s.83.24,1.3.24c.24,0,.47,0,.71-.12.24,0,.59-.12.83-.24v2.25c-.35.12-.71.24-1.06.24-.47.35-.83.35-1.18.35Z"/>
    <path class="cls-1" d="m198.08,38.06c-.59,0-1.06-.12-1.3-.47-.24-.24-.47-.71-.47-1.18s.12-.83.47-1.18c.24-.24.71-.35,1.3-.35s1.06.12,1.3.35c.24.24.47.71.47,1.18s-.12.83-.47,1.18c-.24.35-.71.47-1.3.47Zm-1.42,11.82v-10.4h2.84v10.4h-2.84Z"/>
    <path class="cls-1" d="m204.58,50.11c-.83,0-1.54-.24-2.13-.83s-.83-1.3-.83-2.13c0-.95.35-1.77.95-2.36s1.65-.83,2.95-.95l1.65-.12.35,1.65-1.77.12c-.47,0-.83.12-1.06.35s-.35.59-.35.95c0,.47.12.71.35.95s.47.35.83.35c.24,0,.47,0,.71-.12.24-.12.47-.24.59-.47v-4.02c0-.47-.12-.83-.24-1.06-.12-.24-.35-.47-.59-.59s-.71-.12-1.18-.12c-.35,0-.71,0-1.18.12s-.83.12-1.3.24v-2.25c.47-.12.95-.24,1.42-.24.59-.12,1.06-.12,1.54-.12.95,0,1.77.12,2.36.35s1.06.71,1.42,1.3.47,1.42.47,2.36v6.38h-2.25l-.24-1.06h-.12c-.24.47-.59.83-.95.95s-.95.35-1.42.35Z"/>
    <path class="cls-1" d="m212.26,49.87v-15.25h2.84v15.25s-2.84,0-2.84,0Z"/>
  </g>
</svg>