<?xml version="1.0" encoding="UTF-8"?>
<svg id="Capa_1" data-name="Capa 1" xmlns="http://www.w3.org/2000/svg" viewBox="0 0 640 512">
  <defs>
    <style>
      .cls-1 {
        fill: #fff;
      }
    </style>
  </defs>
  <path class="cls-1" d="m256,64h128v64h-128v-64ZM240,0c-26.5,0-48,21.5-48,48v96c0,26.5,21.5,48,48,48h48v32H32c-17.7,0-32,14.3-32,32s14.3,32,32,32h96v32h-48c-26.5,0-48,21.5-48,48v96c0,26.5,21.5,48,48,48h160c26.5,0,48-21.5,48-48v-96c0-26.5-21.5-48-48-48h-48v-32h256v32h-48c-26.5,0-48,21.5-48,48v96c0,26.5,21.5,48,48,48h160c26.5,0,48-21.5,48-48v-96c0-26.5-21.5-48-48-48h-48v-32h96c17.7,0,32-14.3,32-32s-14.3-32-32-32h-256v-32h48c26.5,0,48-21.5,48-48V48c0-26.5-21.5-48-48-48h-160ZM96,448v-64h128v64H96Zm320-64h128v64h-128v-64Z"/>
</svg>