<svg xmlns="http://www.w3.org/2000/svg" width="37.264" height="37.264" viewBox="0 0 37.264 37.264">
  <path id="pen-to-square-solid" d="M34.681,6.483a4.114,4.114,0,0,0-5.824,0L26.643,8.689l7.2,7.2,2.214-2.214a4.114,4.114,0,0,0,0-5.824Zm-22,16.178a4.063,4.063,0,0,0-.993,1.611L9.509,30.8a1.774,1.774,0,0,0,.427,1.809,1.752,1.752,0,0,0,1.809.427l6.53-2.177a4.168,4.168,0,0,0,1.61-.993l12.3-12.31-7.207-7.207ZM7.06,9.594A7.062,7.062,0,0,0,0,16.653V35.479a7.062,7.062,0,0,0,7.06,7.06H25.886a7.062,7.062,0,0,0,7.06-7.06v-7.06a2.353,2.353,0,1,0-4.706,0v7.06a2.351,2.351,0,0,1-2.353,2.353H7.06a2.351,2.351,0,0,1-2.353-2.353V16.653A2.351,2.351,0,0,1,7.06,14.3h7.06a2.353,2.353,0,0,0,0-4.706Z" transform="translate(0 -5.275)" fill="#7a7a7a"/>
</svg>
