<?xml version="1.0" encoding="UTF-8"?>
<svg id="Capa_1" data-name="Capa 1" xmlns="http://www.w3.org/2000/svg" viewBox="0 0 80.35 36.63">
  <defs>
    <style>
      .cls-1 {
        fill: #fff;
        font-family: EncodeSansCondensedThin-SemiBold, 'Encode Sans Condensed Thin';
        font-size: 12px;
        font-variation-settings: 'wght' 600, 'wdth' 100;
        font-weight: 600;
      }

      .cls-2 {
        fill: #50b8b1;
      }
    </style>
  </defs>
  <path class="cls-2" d="m46.6,0H12.42c-.16,0-.31.04-.45.11-.43.23-1.42.76-2.21,1.2-1.03.58-2.9,1.63-4.16,2.35C.11,6.75.35,6.6.11,7.24,0,7.55,0,7.67,0,14c0,4.42.02,6.51.07,6.64.14.43.56.78,1.76,1.45.62.35,1.71.96,2.43,1.36.71.41,1.6.9,1.97,1.12.37.21,1.03.58,1.47.83,1.89,1.09,3.36,1.95,3.99,2.3.2.11.4.16.63.16,1.02,0,4.92,0,16.69,0h0s48.55,0,48.55,0c1.55,0,2.8-1.25,2.8-2.8V2.8c0-1.55-1.25-2.8-2.8-2.8h-30.95ZM8.92,16.29c-1.06-.17-1.96-1.05-2.09-2.17-.03-.31,0-.63.09-.93.39-1.25,1.74-2.02,3.02-1.67.47.13.91.41,1.22.78.94,1.11.63,2.85-.57,3.63-.21.14-.44.24-.69.31-.33.09-.66.1-.98.05Z"/>
  <text class="cls-1" transform="translate(17.71 17.43)"><tspan x="0" y="0">Pendiente</tspan></text>
</svg>