<?xml version="1.0" encoding="UTF-8"?>
<svg id="Capa_1" data-name="Capa 1" xmlns="http://www.w3.org/2000/svg" viewBox="0 0 576 384">
  <defs>
    <style>
      .cls-1 {
        fill: #fff;
      }
    </style>
  </defs>
  <path class="cls-1" d="m64,0C28.7,0,0,28.7,0,64v64c0,8.8,7.4,15.7,15.7,18.6,18.8,6.5,32.3,24.4,32.3,45.4s-13.5,38.9-32.3,45.4c-8.3,2.9-15.7,9.8-15.7,18.6v64c0,35.3,28.7,64,64,64h448c35.3,0,64-28.7,64-64v-64c0-8.8-7.4-15.7-15.7-18.6-18.8-6.5-32.3-24.4-32.3-45.4s13.5-38.9,32.3-45.4c8.3-2.9,15.7-9.8,15.7-18.6v-64c0-35.3-28.7-64-64-64H64Zm64,112v160c0,8.8,7.2,16,16,16h288c8.8,0,16-7.2,16-16V112c0-8.8-7.2-16-16-16H144c-8.8,0-16,7.2-16,16Zm-32-16c0-17.7,14.3-32,32-32h320c17.7,0,32,14.3,32,32v192c0,17.7-14.3,32-32,32H128c-17.7,0-32-14.3-32-32V96Z"/>
</svg>